<svg version="1.1" xmlns="http://www.w3.org/2000/svg" viewBox="0 0 1134.111 835.872" width="2268.221" height="1671.744"><defs><style class="style-fonts">@font-face{font-family:&quot;Virgil&quot;;src:url(https://excalidraw.com/Virgil.woff2)}@font-face{font-family:&quot;Cascadia&quot;;src:url(https://excalidraw.com/Cascadia.woff2)}</style></defs><rect x="0" y="0" width="1134.111" height="835.872" fill="#fff"/><g stroke-linecap="round"><path d="M-0.31 2.38 C-0.31 2.38, -0.31 2.38, -0.31 2.38 M-0.31 2.38 C-0.31 2.38, -0.31 2.38, -0.31 2.38 M-0.18 14.42 C4.26 9.04, 7.99 4.8, 9.67 3.1 M-0.18 14.42 C4.02 9.64, 7.57 6.58, 9.67 3.1 M-0.04 26.46 C1.83 24.03, 6.34 20.61, 9.8 15.14 M-0.04 26.46 C2.88 24.64, 4.44 21.47, 9.8 15.14 M0.09 38.5 C1.53 35.24, 4.35 32, 9.28 27.94 M0.09 38.5 C3.79 34.08, 6.7 30.31, 9.28 27.94 M0.22 50.55 C2.07 47.18, 5.83 45.66, 9.41 39.98 M0.22 50.55 C2.29 47.95, 4.7 45.78, 9.41 39.98 M-0.3 63.34 C0.78 59.5, 3.21 57.3, 9.54 52.02 M-0.3 63.34 C2.65 61.14, 4.98 57.9, 9.54 52.02 M-0.17 75.38 C2.93 73.09, 5.45 69.38, 9.68 64.06 M-0.17 75.38 C1.93 72.46, 5.36 68.31, 9.68 64.06 M-0.03 87.42 C1.64 83.28, 6.14 81.14, 9.81 76.1 M-0.03 87.42 C3.21 84.46, 5.59 80.13, 9.81 76.1 M0.1 99.46 C2.92 96.18, 4.65 94.93, 9.29 88.9 M0.1 99.46 C2.9 96.43, 6.08 92.89, 9.29 88.9 M0.23 111.5 C3.27 109.63, 2.94 105.59, 9.42 100.94 M0.23 111.5 C2.67 108.73, 3.98 106.55, 9.42 100.94 M-0.29 124.3 C2.69 120.56, 5.82 119.44, 9.55 112.98 M-0.29 124.3 C2.22 121.66, 5.33 117.92, 9.55 112.98 M-0.16 136.34 C4.54 133.32, 5.54 129.76, 9.68 125.02 M-0.16 136.34 C3.09 133.84, 4.78 130.3, 9.68 125.02 M-0.02 148.38 C3.55 146.12, 7.43 140.72, 9.82 137.06 M-0.02 148.38 C1.96 146.15, 4.35 143.24, 9.82 137.06 M0.11 160.42 C2.83 155.64, 5.3 154.33, 9.3 149.86 M0.11 160.42 C2.58 157.41, 5.32 154.29, 9.3 149.86 M0.24 172.46 C4.2 169.78, 4.13 167.06, 9.43 161.9 M0.24 172.46 C2.94 169.72, 5.21 166.84, 9.43 161.9 M-0.28 185.26 C3.53 182.3, 4.95 179.36, 9.56 173.94 M-0.28 185.26 C3.61 180.22, 6.7 177.04, 9.56 173.94 M-0.15 197.3 C3.07 193.31, 4.46 193.33, 9.69 185.98 M-0.15 197.3 C3.41 193.1, 6.62 189.92, 9.69 185.98 M-0.01 209.34 C3.27 204.57, 7.25 202.47, 9.83 198.02 M-0.01 209.34 C3.54 205.84, 6.45 203.24, 9.83 198.02 M0.12 221.38 C1.29 219.03, 5.72 215.05, 9.3 210.82 M0.12 221.38 C2.38 218.63, 4.74 216.11, 9.3 210.82 M0.25 233.42 C2.33 230.56, 5.03 228.49, 9.44 222.86 M0.25 233.42 C2.99 229.29, 6.19 226.11, 9.44 222.86 M-0.27 246.22 C2.73 242.35, 4.54 241.86, 9.57 234.9 M-0.27 246.22 C1.22 244.05, 3.64 241.21, 9.57 234.9 M-0.14 258.26 C2.18 255.02, 4.63 254.25, 9.7 246.94 M-0.14 258.26 C4.12 254.61, 7.6 249.83, 9.7 246.94 M0 270.3 C2.09 265.68, 7.77 261.67, 9.84 258.98 M0 270.3 C3.1 267.39, 6.35 264.26, 9.84 258.98 M0.13 282.34 C1.94 279.69, 4.56 276.73, 9.31 271.77 M0.13 282.34 C2.84 279.15, 5.39 277.12, 9.31 271.77 M0.26 294.38 C3.61 292.73, 5.34 288.12, 9.45 283.82 M0.26 294.38 C4.47 290.31, 7.9 286.54, 9.45 283.82 M-0.26 307.18 C0.49 305.05, 4.5 302.89, 9.58 295.86 M-0.26 307.18 C3.59 302.42, 7.15 299.01, 9.58 295.86 M-0.13 319.22 C2.08 315.8, 6.15 314.22, 9.71 307.9 M-0.13 319.22 C3.61 314.31, 7.32 309.98, 9.71 307.9 M0.01 331.26 C4.42 326.64, 7.26 323.65, 9.85 319.94 M0.01 331.26 C2.09 329.01, 4.89 326.94, 9.85 319.94 M0.14 343.3 C3.96 340.79, 8.12 335.19, 9.32 332.73 M0.14 343.3 C2.9 340.9, 5.31 337.41, 9.32 332.73 M0.27 355.34 C3.43 353.93, 3.41 349.31, 9.46 344.77 M0.27 355.34 C3.64 351.66, 6.32 348.51, 9.46 344.77 M-0.25 368.14 C3.19 364.41, 6.69 362.01, 9.59 356.82 M-0.25 368.14 C2.41 364.68, 5.22 362.13, 9.59 356.82 M-0.12 380.18 C4.9 375.44, 5.76 371.37, 9.72 368.86 M-0.12 380.18 C1.89 376.96, 5.07 374.95, 9.72 368.86 M0.02 392.22 C3.03 388.24, 7.61 385.42, 9.2 381.65 M0.02 392.22 C3.67 388.97, 5.79 385.69, 9.2 381.65 M0.15 404.26 C2.29 401.09, 5.9 398.12, 9.33 393.69 M0.15 404.26 C3.5 400.71, 7.04 395.93, 9.33 393.69 M0.28 416.3 C2.88 411.53, 7.36 408.97, 9.47 405.73 M0.28 416.3 C4.16 411.86, 7.07 408.91, 9.47 405.73 M-0.24 429.09 C2.35 425.75, 5.42 420.87, 9.6 417.77 M-0.24 429.09 C3.54 424.67, 7.22 422.15, 9.6 417.77 M-0.11 441.14 C3.39 438.63, 5.02 436.66, 9.73 429.82 M-0.11 441.14 C2.86 437.76, 4.67 435.01, 9.73 429.82 M2.65 450.16 C4.36 447.13, 7.34 445.74, 9.21 442.61 M2.65 450.16 C4.47 447.6, 6.83 445.46, 9.21 442.61" stroke="#40c057" stroke-width="1" fill="none" transform="translate(491.7930950197024 323.6252852634925) rotate(0 4.05402501482331 224.9258754921807)"/><path d="M2.03 0 M2.03 0 C3.49 -0.18, 4.51 -0.28, 6.08 0 M6.08 0 C7.93 1.98, 7.48 0.96, 8.11 2.03 M8.11 2.03 C8.7 133.61, 7.1 266.91, 8.11 447.82 M8.11 447.82 C7.11 449.55, 5.91 450.52, 6.08 449.85 M6.08 449.85 C5.07 449.69, 3.52 449.73, 2.03 449.85 M2.03 449.85 C1.43 448.74, 0.66 450.84, 0 447.82 M0 447.82 C-0.44 309.32, -0.16 170.94, 0 2.03 M0 2.03 C-1.55 -1.11, -0.26 1.56, 2.03 0" stroke="#2b8a3e" stroke-width="2.5" fill="none" stroke-dasharray="1.5 8" transform="translate(491.7930950197024 323.6252852634925) rotate(0 4.05402501482331 224.9258754921807)"/></g><g stroke-linecap="round"><path d="M5.01 1.7 C5.01 1.7, 5.01 1.7, 5.01 1.7 M5.01 1.7 C5.01 1.7, 5.01 1.7, 5.01 1.7 M6.45 12.23 C7.77 10.21, 10.07 7.72, 14.98 2.42 M6.45 12.23 C9.06 9.04, 13.17 5.07, 14.98 2.42 M5.93 25.03 C15.23 16.62, 23.17 5.74, 25.61 2.39 M5.93 25.03 C11.13 20.1, 14.47 14.62, 25.61 2.39 M2.78 40.84 C11.99 28.8, 21.18 20.35, 36.24 2.35 M2.78 40.84 C15.3 25.44, 28.64 10.29, 36.24 2.35 M5.54 49.86 C21.45 32.13, 39.67 12.01, 46.87 2.32 M5.54 49.86 C18.26 35.13, 31.81 18.61, 46.87 2.32 M14.2 52.09 C28.47 32.8, 44.99 14.37, 57.5 2.28 M14.2 52.09 C31.37 33.63, 47.13 14.02, 57.5 2.28 M24.83 52.06 C37.26 38.61, 48.02 26.75, 68.13 2.25 M24.83 52.06 C37.43 38.11, 48.57 24.17, 68.13 2.25 M35.46 52.03 C48.26 36.58, 63.98 20.71, 78.76 2.21 M35.46 52.03 C52.21 32.5, 67.45 13.73, 78.76 2.21 M46.09 51.99 C53.71 41.95, 64.36 31, 89.39 2.18 M46.09 51.99 C55.56 41.85, 64.25 31.1, 89.39 2.18 M56.72 51.96 C68.23 36.83, 77.01 23.64, 100.02 2.15 M56.72 51.96 C66.07 39.96, 76.11 28.07, 100.02 2.15 M67.35 51.92 C81.74 35.25, 99.77 15.78, 110.65 2.11 M67.35 51.92 C77.69 40.8, 86.76 30.51, 110.65 2.11 M77.98 51.89 C92.89 33.86, 107.44 18.47, 121.28 2.08 M77.98 51.89 C92.71 35.4, 105.72 19.82, 121.28 2.08 M88.61 51.85 C105.34 36.18, 117.9 16.09, 131.91 2.04 M88.61 51.85 C100.06 39.15, 110.58 27.62, 131.91 2.04 M99.24 51.82 C112.84 32.82, 131.52 16.43, 142.54 2.01 M99.24 51.82 C108.64 40.92, 117.85 31.43, 142.54 2.01 M109.87 51.78 C122.86 34.82, 135.97 21.11, 153.17 1.97 M109.87 51.78 C120.25 39.78, 130.55 26.88, 153.17 1.97 M120.5 51.75 C131.31 39.21, 141.87 29.22, 163.8 1.94 M120.5 51.75 C135.28 32.64, 152.8 13.66, 163.8 1.94 M131.13 51.72 C141.84 37.05, 157.99 22.38, 174.43 1.9 M131.13 51.72 C145 35.54, 160.02 18.39, 174.43 1.9 M141.76 51.68 C155.28 35.82, 172.25 17.1, 185.06 1.87 M141.76 51.68 C155.18 36.82, 169.51 20.32, 185.06 1.87 M152.39 51.65 C166.19 38.16, 177.57 20.55, 195.69 1.84 M152.39 51.65 C165.07 37, 178.01 22.53, 195.69 1.84 M162.37 52.37 C175.04 37.55, 188.84 24.41, 205.67 2.56 M162.37 52.37 C170.45 42.19, 179.66 31.92, 205.67 2.56 M173 52.33 C182.37 39.41, 196.44 24.82, 216.3 2.52 M173 52.33 C184.42 39.78, 194.75 26.37, 216.3 2.52 M183.63 52.3 C199.3 33.76, 218.26 15.23, 226.93 2.49 M183.63 52.3 C195.61 39.47, 206.16 26.12, 226.93 2.49 M194.26 52.26 C207.46 37.62, 221.56 19.65, 237.56 2.45 M194.26 52.26 C204.62 41.86, 214.42 29.95, 237.56 2.45 M204.89 52.23 C221.39 32.91, 237.57 14.8, 248.19 2.42 M204.89 52.23 C213.47 42.34, 223.4 31.51, 248.19 2.42 M215.52 52.19 C229.49 38.39, 239.06 24.85, 258.82 2.38 M215.52 52.19 C230.46 35.47, 245.77 17.18, 258.82 2.38 M226.15 52.16 C240.44 37.66, 254.3 23.7, 269.45 2.35 M226.15 52.16 C239.92 35.23, 255.68 18.68, 269.45 2.35 M236.78 52.12 C252.47 35.33, 270.29 17.97, 280.08 2.31 M236.78 52.12 C245.74 40.63, 255.55 30.28, 280.08 2.31 M247.41 52.09 C257.16 39.84, 269.38 23.9, 290.71 2.28 M247.41 52.09 C260.44 38.62, 273.4 24.22, 290.71 2.28 M258.04 52.06 C275.29 36.52, 287.75 17.58, 301.34 2.24 M258.04 52.06 C269.41 40, 279.01 27.86, 301.34 2.24 M268.67 52.02 C280.04 38.54, 286.87 29.68, 311.97 2.21 M268.67 52.02 C280.95 37.11, 294.21 22.09, 311.97 2.21 M279.3 51.99 C291.52 39.08, 305.19 22.96, 322.6 2.18 M279.3 51.99 C287.8 41.38, 297.75 32.17, 322.6 2.18 M289.93 51.95 C298.22 39.4, 307.25 30.07, 333.23 2.14 M289.93 51.95 C302.26 37.39, 316.54 22.4, 333.23 2.14 M300.56 51.92 C309.94 42.11, 321.12 30.06, 343.86 2.11 M300.56 51.92 C315.03 35.14, 329.22 19.71, 343.86 2.11 M311.19 51.88 C325.24 36.46, 339.47 21.63, 354.49 2.07 M311.19 51.88 C323.63 38.45, 334.08 26.64, 354.49 2.07 M321.82 51.85 C331.35 40.25, 344.02 27.98, 365.12 2.04 M321.82 51.85 C330.6 40.79, 341.24 30.63, 365.12 2.04 M332.45 51.81 C346.95 35.16, 359.22 20.4, 375.75 2 M332.45 51.81 C341.57 41.47, 352.95 28.65, 375.75 2 M343.08 51.78 C353.09 40.97, 363.79 27.26, 386.38 1.97 M343.08 51.78 C355.17 36.46, 368.09 23.46, 386.38 1.97 M353.71 51.75 C364.29 39.33, 378.01 26.03, 397.01 1.93 M353.71 51.75 C364.03 39.34, 375.51 27.07, 397.01 1.93 M364.34 51.71 C376.17 35.9, 388.61 22.28, 407.64 1.9 M364.34 51.71 C381.74 31.71, 399.43 12.66, 407.64 1.9 M374.97 51.68 C383.84 41.17, 392.73 30.63, 418.27 1.87 M374.97 51.68 C389.53 34.81, 403.24 18.5, 418.27 1.87 M385.6 51.64 C402.16 34.9, 416.1 18.26, 428.9 1.83 M385.6 51.64 C401.82 32.33, 416.12 14.5, 428.9 1.83 M395.57 52.36 C412.92 33.1, 429.1 13.76, 438.87 2.55 M395.57 52.36 C405.69 40.79, 414.9 28.78, 438.87 2.55 M406.2 52.33 C418.99 37.83, 432.17 20.08, 449.5 2.52 M406.2 52.33 C416.29 39.27, 428.01 27.11, 449.5 2.52 M416.83 52.29 C431.49 36.41, 447.22 17.82, 460.13 2.48 M416.83 52.29 C426.71 38.73, 438.3 26.48, 460.13 2.48 M427.46 52.26 C443.4 36.09, 457.79 16.81, 470.76 2.45 M427.46 52.26 C440.13 36.87, 454.42 21.62, 470.76 2.45 M438.09 52.22 C450.28 40.47, 463.38 24.58, 481.39 2.41 M438.09 52.22 C448.9 38.88, 460.88 24.03, 481.39 2.41 M448.72 52.19 C461.9 36.16, 472.26 22.19, 492.02 2.38 M448.72 52.19 C466.4 33.81, 482.42 14.05, 492.02 2.38 M459.35 52.16 C470.31 39.13, 483.87 24.39, 502.65 2.34 M459.35 52.16 C473.48 35.45, 486.15 19.92, 502.65 2.34 M469.98 52.12 C480.14 39.94, 492.94 28.08, 513.28 2.31 M469.98 52.12 C485.31 33.62, 500.9 14.86, 513.28 2.31 M480.61 52.09 C493.68 39.37, 502.86 27.85, 523.91 2.28 M480.61 52.09 C498.11 32.4, 514.93 13.51, 523.91 2.28 M491.24 52.05 C502.16 37.58, 516.83 26.23, 534.54 2.24 M491.24 52.05 C507.07 34.25, 520.42 17.63, 534.54 2.24 M501.87 52.02 C510.81 39.97, 523.21 27.53, 545.17 2.21 M501.87 52.02 C511.36 40.94, 520.77 31.48, 545.17 2.21 M512.5 51.98 C526.18 35.33, 544.68 15.11, 555.8 2.17 M512.5 51.98 C529.4 32.75, 543.73 14.59, 555.8 2.17 M523.13 51.95 C534.88 38.92, 545.95 28.32, 566.43 2.14 M523.13 51.95 C536.89 36.69, 549.79 20.16, 566.43 2.14 M533.76 51.91 C552.8 33.45, 568.86 10.8, 577.06 2.1 M533.76 51.91 C549.71 31.91, 567.58 14.32, 577.06 2.1 M544.39 51.88 C558.66 38.52, 567.49 23.59, 587.69 2.07 M544.39 51.88 C557.3 35, 570.93 19.58, 587.69 2.07 M555.02 51.84 C571.47 31.7, 588.85 13.59, 598.32 2.03 M555.02 51.84 C565.91 39.61, 575.94 28.1, 598.32 2.03 M565.65 51.81 C577.74 37.7, 594.41 20.44, 608.95 2 M565.65 51.81 C577.94 37.6, 590.03 23.3, 608.95 2 M576.28 51.78 C588 38.47, 597.74 27.95, 619.58 1.96 M576.28 51.78 C588.56 36.75, 599.73 22.9, 619.58 1.96 M586.91 51.74 C599.3 40.58, 608.67 27.32, 630.21 1.93 M586.91 51.74 C603.4 34.38, 619.34 15.19, 630.21 1.93 M597.54 51.71 C607.74 37.95, 619.04 24.95, 640.84 1.9 M597.54 51.71 C605.77 40.63, 616.1 31.59, 640.84 1.9 M608.17 51.67 C623.62 32.82, 638.06 15.43, 651.47 1.86 M608.17 51.67 C620.39 36.3, 634.76 21.22, 651.47 1.86 M618.8 51.64 C633.7 33.79, 650.52 16.62, 662.1 1.83 M618.8 51.64 C634.95 33.9, 650.51 15.13, 662.1 1.83 M628.78 52.36 C640.97 35.07, 654.1 20.97, 672.08 2.55 M628.78 52.36 C644.53 33.34, 661.58 14.61, 672.08 2.55 M639.41 52.32 C646.83 43.22, 656.81 33.21, 682.71 2.51 M639.41 52.32 C649.74 38.85, 660.67 27.57, 682.71 2.51 M650.04 52.29 C665.32 33.3, 681.43 16.69, 693.34 2.48 M650.04 52.29 C661.87 39.98, 672.34 26.03, 693.34 2.48 M660.67 52.25 C670.01 43.7, 676.36 32.95, 703.97 2.44 M660.67 52.25 C670.72 38.97, 682.85 26.9, 703.97 2.44 M671.3 52.22 C682.01 40, 694.47 25.97, 714.6 2.41 M671.3 52.22 C685.7 35.81, 700.05 17.54, 714.6 2.41 M681.93 52.19 C696.04 38.64, 705.79 22.58, 725.23 2.37 M681.93 52.19 C694.68 37.5, 706.94 24.44, 725.23 2.37 M692.56 52.15 C709.76 34.49, 722.41 14.21, 735.86 2.34 M692.56 52.15 C710.42 31.26, 727.62 11.03, 735.86 2.34 M703.19 52.12 C715.75 39.29, 725.01 24.3, 746.49 2.31 M703.19 52.12 C716.42 35.37, 731.8 19.78, 746.49 2.31 M713.82 52.08 C725.25 42, 733.53 28.76, 757.12 2.27 M713.82 52.08 C727.69 34.99, 742.41 18.73, 757.12 2.27 M724.45 52.05 C738.48 35.86, 751.34 21.97, 767.75 2.24 M724.45 52.05 C738.25 36.55, 752.46 21.16, 767.75 2.24 M735.08 52.01 C749.3 35.99, 762.92 16.45, 778.38 2.2 M735.08 52.01 C747.25 38.8, 757.36 25.19, 778.38 2.2 M745.71 51.98 C754.27 39.73, 767.39 30.21, 789.01 2.17 M745.71 51.98 C756.8 39.1, 769.34 25.55, 789.01 2.17 M756.34 51.94 C769.64 33.52, 785.74 15.78, 799.64 2.13 M756.34 51.94 C773.09 32.97, 790.84 13.56, 799.64 2.13 M766.97 51.91 C780.7 36.36, 790.18 24.44, 810.27 2.1 M766.97 51.91 C779.9 35.65, 793.31 20.1, 810.27 2.1 M777.6 51.87 C788.14 38.63, 803.97 25.38, 820.9 2.06 M777.6 51.87 C793.66 34.53, 808.5 18.71, 820.9 2.06 M788.23 51.84 C801.03 35.54, 811.04 21.95, 831.53 2.03 M788.23 51.84 C800.37 37.96, 811.98 23.65, 831.53 2.03 M798.86 51.81 C815.91 33.19, 829.28 19.89, 842.16 2 M798.86 51.81 C808.96 39.92, 820.08 27.16, 842.16 2 M809.49 51.77 C822.39 36.81, 835.39 22.49, 852.79 1.96 M809.49 51.77 C823.87 35.55, 837.76 18.47, 852.79 1.96 M820.12 51.74 C833.56 36.14, 844.89 24.1, 863.42 1.93 M820.12 51.74 C831.44 40.43, 840.57 27.39, 863.42 1.93 M830.75 51.7 C842.28 38.62, 856.27 24.31, 874.05 1.89 M830.75 51.7 C845.1 37.05, 857.77 22.49, 874.05 1.89 M841.38 51.67 C851.6 40.02, 861.02 28.59, 884.68 1.86 M841.38 51.67 C856.13 32.93, 872.06 15.51, 884.68 1.86 M852.01 51.63 C862.04 40.64, 872.8 27.58, 895.31 1.82 M852.01 51.63 C868.54 32.84, 884.97 13.08, 895.31 1.82 M861.98 52.35 C872.67 38.4, 883.43 26.13, 905.28 2.54 M861.98 52.35 C873.5 39.55, 885.6 23.99, 905.28 2.54 M872.61 52.32 C885.39 37.09, 900.39 20.64, 915.91 2.51 M872.61 52.32 C881.43 41.76, 890 32.55, 915.91 2.51 M883.24 52.28 C894.35 37.23, 907.87 23.93, 926.54 2.47 M883.24 52.28 C898.23 35.28, 913.6 18.33, 926.54 2.47 M893.87 52.25 C904.9 37.87, 919.56 22.09, 937.17 2.44 M893.87 52.25 C909.75 33.63, 926.3 14, 937.17 2.44 M904.5 52.22 C916.67 36.75, 932.67 22.68, 947.8 2.4 M904.5 52.22 C919.49 35.31, 933.81 19.3, 947.8 2.4 M915.13 52.18 C924.51 37.31, 937.43 24.69, 958.43 2.37 M915.13 52.18 C929.9 33.26, 946.75 15.91, 958.43 2.37 M925.76 52.15 C938.93 36.26, 955.13 18.27, 969.06 2.34 M925.76 52.15 C938.01 37.4, 951.38 22.36, 969.06 2.34 M936.39 52.11 C945.36 40.99, 955.24 29.03, 979.69 2.3 M936.39 52.11 C953.08 33.66, 970.33 14.7, 979.69 2.3 M947.02 52.08 C961.22 38.78, 972.77 23.45, 990.32 2.27 M947.02 52.08 C961.93 33.62, 977.69 16.4, 990.32 2.27 M957.65 52.04 C973.26 36.88, 985.46 17.81, 1000.95 2.23 M957.65 52.04 C970.52 36.69, 983.73 22.2, 1000.95 2.23 M968.28 52.01 C984.91 33.72, 1000.78 15.52, 1011.58 2.2 M968.28 52.01 C981.35 37.57, 993.95 23.9, 1011.58 2.2 M978.91 51.97 C991.26 40.01, 1001.41 29.27, 1022.21 2.16 M978.91 51.97 C994.29 35.11, 1010.49 16.8, 1022.21 2.16 M989.54 51.94 C1001.81 39.89, 1010.92 26.24, 1032.84 2.13 M989.54 51.94 C1001.09 37.79, 1014.24 23.48, 1032.84 2.13 M1000.17 51.91 C1014.06 36.52, 1028.61 18.6, 1043.47 2.09 M1000.17 51.91 C1010.79 39.62, 1021.5 27.37, 1043.47 2.09 M1010.8 51.87 C1025.99 33.44, 1043.56 12.98, 1054.1 2.06 M1010.8 51.87 C1021.91 38.35, 1032.42 27.31, 1054.1 2.06 M1021.43 51.84 C1033.93 41.55, 1041.07 28.46, 1064.73 2.03 M1021.43 51.84 C1031.93 39.84, 1039.79 29.39, 1064.73 2.03 M1032.06 51.8 C1048.67 30.98, 1065 14.59, 1075.36 1.99 M1032.06 51.8 C1046.68 35.94, 1059.97 19.35, 1075.36 1.99 M1042.69 51.77 C1052.13 39.86, 1065.7 26.9, 1085.99 1.96 M1042.69 51.77 C1058.28 34.05, 1075.45 15.56, 1085.99 1.96 M1053.32 51.73 C1068 35.27, 1077.53 24.25, 1096.62 1.92 M1053.32 51.73 C1067.17 36.79, 1079.11 21.16, 1096.62 1.92 M1063.95 51.7 C1080.46 30.82, 1096.86 13.16, 1107.25 1.89 M1063.95 51.7 C1080.63 32.89, 1096.07 14.52, 1107.25 1.89 M1074.58 51.66 C1085.03 40.49, 1092.99 31.45, 1111.98 8.65 M1074.58 51.66 C1082.82 40.74, 1091.84 30.66, 1111.98 8.65 M1085.22 51.63 C1091.68 46.68, 1094.65 38.58, 1112.77 19.93 M1085.22 51.63 C1094.06 40.78, 1104.39 29.69, 1112.77 19.93 M1095.19 52.35 C1098.8 47.73, 1104.58 42.24, 1112.9 31.97 M1095.19 52.35 C1100.03 47.61, 1103.29 43, 1112.9 31.97" stroke="#868e96" stroke-width="1" fill="none" transform="translate(12.44200901415752 58.95233843033748) rotate(0 555.8342728495745 25.288012943313333)"/><path d="M12.64 0 M12.64 0 C385.25 -1.41, 757.35 -1.36, 1099.02 0 M1099.02 0 C1109.05 0.47, 1111.83 5.65, 1111.67 12.64 M1111.67 12.64 C1111.1 17.7, 1112.83 23.08, 1111.67 37.93 M1111.67 37.93 C1109.93 44.57, 1107.45 50.8, 1099.02 50.58 M1099.02 50.58 C801.18 49.19, 503.84 49.94, 12.64 50.58 M12.64 50.58 C2.77 50.84, 1.36 44.46, 0 37.93 M0 37.93 C-1.6 28.31, -1.68 17.9, 0 12.64 M0 12.64 C0.88 4.89, 4.08 -1.32, 12.64 0" stroke="#343a40" stroke-width="2.5" fill="none" stroke-dasharray="1.5 8" transform="translate(12.44200901415752 58.95233843033748) rotate(0 555.8342728495745 25.288012943313333)"/></g><g><text x="0" y="18" font-family="Virgil, Segoe UI Emoji" font-size="20" fill="#343a40" text-anchor="start" direction="ltr" white-space="pre" transform="translate(10 10) rotate(0 45 12.5)">Keyspace</text></g><g stroke-linecap="round"><g><path d="M-0.02 -0.77 C0.61 16.07, 2.53 83.45, 3.35 100.22" stroke="#343a40" stroke-width="2.5" fill="none" stroke-dasharray="1.5 8" transform="translate(496.009036754127 216.61495302604544) rotate(0 1.6671498440273353 49.72600840019868)"/></g><g><path d="M-9.24 71.29 C-6.05 81.35, -3.59 86.69, 3.14 99.7" stroke="#343a40" stroke-width="2.5" fill="none" stroke-dasharray="1.5 6" transform="translate(496.009036754127 216.61495302604544) rotate(0 1.6671498440273353 49.72600840019868)"/></g><g><path d="M11.27 70.52 C8.96 80.79, 5.92 86.33, 3.14 99.7" stroke="#343a40" stroke-width="2.5" fill="none" stroke-dasharray="1.5 6" transform="translate(496.009036754127 216.61495302604544) rotate(0 1.6671498440273353 49.72600840019868)"/></g></g><g stroke-linecap="round"><g><path d="M-0.77 -0.69 C-6.6 8.74, -29.88 47.21, -35.78 56.54" stroke="#343a40" stroke-width="2.5" fill="none" stroke-dasharray="1.5 8" transform="translate(540.5078539828191 119.42469230444112) rotate(0 -18.27342733277783 27.92476084935015)"/></g><g><path d="M-30.86 26.22 C-29.66 32.44, -33.17 40.56, -36.3 57.97" stroke="#343a40" stroke-width="2.5" fill="none" stroke-dasharray="1.5 6" transform="translate(540.5078539828191 119.42469230444112) rotate(0 -18.27342733277783 27.92476084935015)"/></g><g><path d="M-13.39 36.99 C-16.25 40.59, -23.83 46.21, -36.3 57.97" stroke="#343a40" stroke-width="2.5" fill="none" stroke-dasharray="1.5 6" transform="translate(540.5078539828191 119.42469230444112) rotate(0 -18.27342733277783 27.92476084935015)"/></g></g><g><text x="0" y="18" font-family="Virgil, Segoe UI Emoji" font-size="20" fill="#343a40" text-anchor="start" direction="ltr" white-space="pre" transform="translate(458.78079225727924 190.48778181016496) rotate(0 46 12.5)">_id index</text></g><g><text x="0" y="18" font-family="Virgil, Segoe UI Emoji" font-size="20" fill="#343a40" text-anchor="start" direction="ltr" white-space="pre" transform="translate(357.13788440078315 800.8717836566566) rotate(0 131.5 12.5)">507f1f77bcf86cd799439011</text></g></svg>