<svg version="1.1"
    xmlns="http://www.w3.org/2000/svg" viewBox="0 0 1243.9295631019068 870.5351477900022" width="2487.8591262038135" height="1741.0702955800043">
    <!-- svg-source:excalidraw -->

    <defs>
        <style class="style-fonts">
      @font-face {
        font-family: "Virgil";
        src: url("https://excalidraw.com/Virgil.woff2");
      }
      @font-face {
        font-family: "Cascadia";
        src: url("https://excalidraw.com/Cascadia.woff2");
      }
        </style>
    </defs>
    <rect x="0" y="0" width="1243.9295631019068" height="870.5351477900022" fill="#ffffff"></rect>
    <g stroke-linecap="round" transform="translate(651.9125805390977 368.7148788378199) rotate(0 291.00849128140453 224.9258754921807)">
        <path d="M7.86 8.16 C7.86 8.16, 7.86 8.16, 7.86 8.16 M7.86 8.16 C7.86 8.16, 7.86 8.16, 7.86 8.16 M6.68 21.71 C10.59 17.11, 14.68 14.92, 21.12 5.11 M6.68 21.71 C10.49 17.09, 15.57 10.17, 21.12 5.11 M4.85 36.01 C15.56 21.85, 27.62 11.61, 34.37 2.05 M4.85 36.01 C11.32 29.45, 18.19 21.93, 34.37 2.05 M4.98 48.06 C14.59 38.88, 21.86 30.2, 45 2.02 M4.98 48.06 C18.87 33.26, 31.56 17.64, 45 2.02 M4.46 60.85 C21.67 41.85, 37.86 20.5, 55.63 1.98 M4.46 60.85 C21.22 40.56, 40.41 19.11, 55.63 1.98 M4.59 72.89 C19.31 58.68, 29.59 43.53, 66.26 1.95 M4.59 72.89 C25.11 50.26, 46.21 28.3, 66.26 1.95 M4.72 84.93 C23.36 61.9, 45.8 39.19, 76.89 1.91 M4.72 84.93 C19.02 66.9, 33.83 50.3, 76.89 1.91 M4.86 96.97 C20.14 76.15, 37.03 58.31, 87.52 1.88 M4.86 96.97 C28.22 69.55, 52.75 41.76, 87.52 1.88 M4.99 109.01 C36.25 74.26, 67.42 33.76, 98.15 1.85 M4.99 109.01 C31.88 80.15, 59.21 49.6, 98.15 1.85 M4.47 121.81 C25.46 97.49, 49.94 71.13, 108.78 1.81 M4.47 121.81 C27.77 95.55, 51.42 70.15, 108.78 1.81 M4.6 133.85 C47.12 84.57, 92.85 31.67, 119.41 1.78 M4.6 133.85 C41.06 93.26, 75.34 52.82, 119.41 1.78 M4.73 145.89 C44.14 101.57, 80.46 55.68, 130.04 1.74 M4.73 145.89 C33.15 112.8, 64.03 77.71, 130.04 1.74 M4.87 157.93 C41.46 117.92, 79.12 72.9, 140.67 1.71 M4.87 157.93 C34.34 121.89, 66.18 87.26, 140.67 1.71 M5 169.97 C58 105.75, 114.64 42.24, 150.65 2.43 M5 169.97 C49.95 118.57, 94.72 67.37, 150.65 2.43 M4.48 182.77 C49.5 131.07, 94.23 79.02, 161.28 2.39 M4.48 182.77 C40.26 140.96, 77.33 99.59, 161.28 2.39 M4.61 194.81 C41.79 152.54, 77.67 109.3, 171.91 2.36 M4.61 194.81 C56.04 135.67, 105.34 77.07, 171.91 2.36 M4.74 206.85 C56.68 142.41, 113.55 79.57, 182.54 2.32 M4.74 206.85 C58.98 144.83, 112.1 82.94, 182.54 2.32 M4.88 218.89 C41.32 175.16, 80.05 130.63, 193.17 2.29 M4.88 218.89 C67.38 148.3, 130.33 75.27, 193.17 2.29 M5.01 230.93 C84.78 141.17, 159.96 54.87, 203.8 2.26 M5.01 230.93 C67.67 158.95, 129.29 87.91, 203.8 2.26 M4.49 243.73 C49.45 192.21, 93.62 141.32, 214.43 2.22 M4.49 243.73 C52.94 187.61, 102.33 130.98, 214.43 2.22 M4.62 255.77 C53.56 201.24, 101.61 146.14, 225.06 2.19 M4.62 255.77 C67.99 184.17, 131.45 112.26, 225.06 2.19 M4.75 267.81 C83.59 179.5, 158.75 91.37, 235.69 2.15 M4.75 267.81 C64.93 196.95, 126.18 126.01, 235.69 2.15 M4.89 279.85 C62.62 215.35, 119.15 148.49, 246.32 2.12 M4.89 279.85 C83.89 186.14, 163.83 94.13, 246.32 2.12 M5.02 291.89 C93 192.35, 179.89 93.16, 256.95 2.08 M5.02 291.89 C57.25 229.39, 111.62 167.15, 256.95 2.08 M4.5 304.69 C92.76 202.32, 183.78 97.57, 267.58 2.05 M4.5 304.69 C93.88 199.87, 183.63 96.35, 267.58 2.05 M4.63 316.73 C64.64 248.53, 124.28 178.67, 278.21 2.01 M4.63 316.73 C82.89 227.71, 161.59 136.89, 278.21 2.01 M4.76 328.77 C108.06 207.15, 214.39 86.63, 288.84 1.98 M4.76 328.77 C85.15 235.85, 164.28 143.95, 288.84 1.98 M4.9 340.81 C75.02 260.72, 143.68 181.24, 299.47 1.94 M4.9 340.81 C76.14 260.01, 144.7 180.58, 299.47 1.94 M5.03 352.85 C70.48 278.01, 134.31 204.4, 310.1 1.91 M5.03 352.85 C90.93 252.62, 179.16 151.51, 310.1 1.91 M4.51 365.65 C89.57 268.03, 174.72 170.69, 320.73 1.88 M4.51 365.65 C73.66 287.45, 142.74 207.57, 320.73 1.88 M4.64 377.69 C100.68 264.63, 196.2 154.86, 331.36 1.84 M4.64 377.69 C128.6 236.18, 252.88 92.54, 331.36 1.84 M4.77 389.73 C102.74 277.09, 200.76 162.74, 341.99 1.81 M4.77 389.73 C115.83 261.82, 227.59 133.1, 341.99 1.81 M4.91 401.77 C113.54 277.37, 222.71 152.69, 352.62 1.77 M4.91 401.77 C127.4 259.68, 250.13 118.34, 352.62 1.77 M1.1 418.34 C100.83 304.26, 198.99 189.16, 363.25 1.74 M1.1 418.34 C105.23 295.18, 211.25 173.49, 363.25 1.74 M2.55 428.87 C112.11 304.24, 221.17 178.62, 373.88 1.7 M2.55 428.87 C104.67 310.81, 206.97 192.52, 373.88 1.7 M6.62 436.38 C114.07 311.99, 223.16 187.37, 383.85 2.42 M6.62 436.38 C138.66 285.73, 270.67 133.29, 383.85 2.42 M10.69 443.89 C133.9 304.37, 255.91 162.64, 394.48 2.39 M10.69 443.89 C164.07 268.39, 317 92.31, 394.48 2.39 M17.38 448.39 C170.61 270.78, 325.46 92.9, 405.11 2.35 M17.38 448.39 C164.02 280.32, 310.29 112.67, 405.11 2.35 M24.07 452.88 C110.44 353.04, 197.98 254.75, 415.74 2.32 M24.07 452.88 C117.49 345.55, 211.87 237.19, 415.74 2.32 M34.7 452.85 C182.99 283.9, 329.94 114.34, 426.37 2.29 M34.7 452.85 C179.76 284.96, 324.67 117.14, 426.37 2.29 M45.33 452.81 C152.07 329.17, 259.47 204.65, 437 2.25 M45.33 452.81 C165.53 314.45, 284.4 176.63, 437 2.25 M55.96 452.78 C203.97 282.25, 352.38 109.83, 447.63 2.22 M55.96 452.78 C197.82 289.9, 339.08 127.64, 447.63 2.22 M66.59 452.74 C189.25 311.87, 310.64 172.58, 458.26 2.18 M66.59 452.74 C210.44 288.58, 354.42 122.47, 458.26 2.18 M77.22 452.71 C185.87 329.4, 294.92 204, 468.89 2.15 M77.22 452.71 C192.14 319.49, 307.57 186.23, 468.89 2.15 M87.85 452.67 C165.49 362.88, 244.44 271.68, 479.52 2.11 M87.85 452.67 C235.87 279.87, 385.39 108.03, 479.52 2.11 M98.48 452.64 C229.65 301.98, 359.24 152.45, 490.15 2.08 M98.48 452.64 C238.52 293.21, 378.27 131.97, 490.15 2.08 M109.11 452.61 C255.24 286.26, 400.79 117.11, 500.78 2.04 M109.11 452.61 C257.19 284.06, 404.28 114.15, 500.78 2.04 M119.75 452.57 C239.46 317.51, 356.57 181.24, 511.41 2.01 M119.75 452.57 C217.72 338.86, 315.03 226.13, 511.41 2.01 M130.38 452.54 C243.77 320.65, 358.93 187.74, 522.04 1.98 M130.38 452.54 C269.71 290.09, 411.4 127.63, 522.04 1.98 M141.01 452.5 C274.93 296.7, 409.27 142.11, 532.67 1.94 M141.01 452.5 C260.93 316.11, 380.17 177.75, 532.67 1.94 M151.64 452.47 C303.6 279.43, 454.78 103.85, 543.3 1.91 M151.64 452.47 C236.12 356.88, 319.91 259.86, 543.3 1.91 M162.27 452.43 C285.04 309.82, 410.31 166.47, 553.28 2.63 M162.27 452.43 C313.28 279.9, 463.65 106.96, 553.28 2.63 M172.9 452.4 C298.77 307.87, 424.28 163.04, 564.56 1.84 M172.9 452.4 C251.32 361.81, 329.26 271.62, 564.56 1.84 M183.53 452.36 C290.84 326.97, 400.2 201.63, 571.26 6.33 M183.53 452.36 C326.5 287.91, 469.76 121.76, 571.26 6.33 M194.16 452.33 C315.42 315.19, 435.77 178.2, 577.95 10.82 M194.16 452.33 C291.24 342.34, 388.27 230.8, 577.95 10.82 M204.79 452.3 C349.7 285.6, 492.92 119.76, 581.36 19.09 M204.79 452.3 C309.2 331.71, 413.61 211.45, 581.36 19.09 M215.42 452.26 C299.81 356.07, 383.94 258.29, 582.81 29.62 M215.42 452.26 C318.88 332.59, 423.3 212.71, 582.81 29.62 M226.05 452.23 C364.25 292.72, 500.69 135.53, 587.53 36.38 M226.05 452.23 C348.53 310.9, 472.44 168.64, 587.53 36.38 M236.68 452.19 C334.73 339.27, 435 225.9, 587.01 49.18 M236.68 452.19 C337.02 337.47, 436.16 222.62, 587.01 49.18 M247.31 452.16 C355.04 326.11, 464.07 200.16, 587.14 61.22 M247.31 452.16 C359.4 321.63, 472.27 191.83, 587.14 61.22 M257.94 452.12 C369.3 325.03, 480.88 196.87, 587.28 73.26 M257.94 452.12 C332.04 368.45, 404.05 285.25, 587.28 73.26 M267.91 452.84 C350.43 360.09, 431.71 265.83, 587.41 85.3 M267.91 452.84 C342.4 367.23, 417.12 280.28, 587.41 85.3 M278.54 452.81 C341.68 379.55, 405.33 306.78, 587.54 97.34 M278.54 452.81 C380.08 335.58, 483.21 217.78, 587.54 97.34 M289.17 452.77 C388.63 338.92, 486.29 225.64, 587.02 110.14 M289.17 452.77 C399.88 325.43, 510.34 197.38, 587.02 110.14 M299.8 452.74 C397.64 339.87, 496.69 226.83, 587.15 122.18 M299.8 452.74 C370.61 372.4, 439.27 293.26, 587.15 122.18 M310.43 452.7 C392.17 357.16, 474.35 261.99, 587.29 134.22 M310.43 452.7 C389.39 362.01, 468.67 271.33, 587.29 134.22 M321.06 452.67 C417.97 343.08, 512.89 232.9, 587.42 146.26 M321.06 452.67 C385.98 379.99, 449.86 306.3, 587.42 146.26 M331.69 452.64 C431.09 335.61, 531.69 219.32, 587.55 158.3 M331.69 452.64 C396.12 378.5, 459.94 305.47, 587.55 158.3 M342.32 452.6 C418.63 365.37, 492.83 279.15, 587.03 171.09 M342.32 452.6 C392.75 395.79, 442.72 339.14, 587.03 171.09 M352.95 452.57 C417.34 380.79, 479.52 308.62, 587.16 183.14 M352.95 452.57 C435.37 355.32, 519.89 257.69, 587.16 183.14 M363.58 452.53 C410 400.77, 457.18 348.93, 587.3 195.18 M363.58 452.53 C425.37 380.26, 486.62 308.96, 587.3 195.18 M374.21 452.5 C429.67 391.13, 485.83 325.72, 587.43 207.22 M374.21 452.5 C425.66 391.95, 476.65 332.52, 587.43 207.22 M384.84 452.46 C443.42 385.31, 503.18 318.78, 587.56 219.26 M384.84 452.46 C464.98 361.47, 545.75 269.3, 587.56 219.26 M395.47 452.43 C452.45 384.81, 511.04 315.37, 587.04 232.05 M395.47 452.43 C463.29 375.28, 530.28 298.21, 587.04 232.05 M406.1 452.39 C471.84 374.37, 541.08 296.22, 587.17 244.09 M406.1 452.39 C469.27 381.13, 531.41 308.68, 587.17 244.09 M416.73 452.36 C458.05 402.94, 499.51 354.22, 587.31 256.14 M416.73 452.36 C458.29 402.99, 503.01 351.87, 587.31 256.14 M427.36 452.33 C474.26 398.03, 523.52 340.83, 587.44 268.18 M427.36 452.33 C477.06 394.39, 526.69 336.52, 587.44 268.18 M437.99 452.29 C487.42 398.3, 536.92 340.88, 587.57 280.22 M437.99 452.29 C491.83 389.56, 546.69 328.03, 587.57 280.22 M448.62 452.26 C489.67 408.58, 525.17 363.25, 587.05 293.01 M448.62 452.26 C497.06 396.85, 546.3 338.46, 587.05 293.01 M459.25 452.22 C496.51 412.74, 528.19 370, 587.18 305.05 M459.25 452.22 C486.61 422.01, 513.86 391.67, 587.18 305.05 M469.88 452.19 C509.93 404.13, 549.65 360.23, 587.32 317.09 M469.88 452.19 C506.83 409.12, 542.36 367.77, 587.32 317.09 M480.51 452.15 C504.68 423.89, 528.56 395.73, 587.45 329.14 M480.51 452.15 C518.66 409.66, 555.97 366.56, 587.45 329.14 M491.14 452.12 C520.83 417.81, 547.2 385.61, 587.58 341.18 M491.14 452.12 C517.57 424.46, 542.95 395.03, 587.58 341.18 M501.12 452.84 C517.92 431.83, 534.88 414.55, 587.06 353.97 M501.12 452.84 C522.56 426.94, 545.58 402.97, 587.06 353.97 M511.75 452.8 C538.33 420.12, 566.8 388.22, 587.19 366.01 M511.75 452.8 C535.77 425.21, 559.35 396.87, 587.19 366.01 M522.38 452.77 C540.53 433.43, 554.67 415.89, 587.33 378.05 M522.38 452.77 C539.31 433.56, 557.44 413.88, 587.33 378.05 M533.01 452.74 C556.18 430.03, 573.51 406.42, 587.46 390.09 M533.01 452.74 C545.26 436.97, 557.97 423.29, 587.46 390.09 M543.64 452.7 C556.01 439.83, 566.58 424.59, 587.59 402.14 M543.64 452.7 C559.56 433.52, 576.28 413.85, 587.59 402.14 M553.61 453.42 C562.79 440.89, 574.4 429.88, 583.13 419.46 M553.61 453.42 C564.57 441.99, 574.48 430.68, 583.13 419.46" stroke="#fa5252" stroke-width="1" fill="none"></path>
        <path d="M32 0 M32 0 C160.42 -1.31, 288.98 -1.31, 550.02 0 M550.02 0 C571.16 0.26, 582.22 9.42, 582.02 32 M582.02 32 C582.78 175.93, 583.51 319.22, 582.02 417.85 M582.02 417.85 C580.99 437.41, 571.86 449.07, 550.02 449.85 M550.02 449.85 C354.02 449.94, 159.6 450.66, 32 449.85 M32 449.85 C11.09 448.39, 0.63 437.93, 0 417.85 M0 417.85 C-2.58 320.11, -1.66 220.87, 0 32 M0 32 C-1.01 11.28, 12.4 0.83, 32 0" stroke="#c92a2a" stroke-width="2.5" fill="none" stroke-dasharray="1.5 8"></path>
    </g>
    <g stroke-linecap="round" transform="translate(10 371.6577841732924) rotate(0 291.00849128140453 224.9258754921807)">
        <path d="M7.86 8.16 C7.86 8.16, 7.86 8.16, 7.86 8.16 M7.86 8.16 C7.86 8.16, 7.86 8.16, 7.86 8.16 M6.68 21.71 C13.04 14.7, 18.42 10, 21.12 5.11 M6.68 21.71 C11.23 16.16, 16.78 10.52, 21.12 5.11 M4.85 36.01 C13.36 24.41, 23.26 14.66, 34.37 2.05 M4.85 36.01 C14.69 23.17, 25.61 10.21, 34.37 2.05 M4.98 48.06 C22.26 30.49, 36.49 10.19, 45 2.02 M4.98 48.06 C14.07 38.23, 24.44 25.92, 45 2.02 M4.46 60.85 C22.4 41.17, 38.85 20.52, 55.63 1.98 M4.46 60.85 C18.42 43.95, 32.37 27.83, 55.63 1.98 M4.59 72.89 C22.19 52.51, 41.86 31.72, 66.26 1.95 M4.59 72.89 C28.39 47.28, 51.55 20.42, 66.26 1.95 M4.72 84.93 C26.14 55.23, 52.8 29.28, 76.89 1.91 M4.72 84.93 C27.72 60.15, 49.4 34.8, 76.89 1.91 M4.86 96.97 C32.52 66.5, 57.37 35.54, 87.52 1.88 M4.86 96.97 C33.74 65, 64.33 31.42, 87.52 1.88 M4.99 109.01 C30.37 76.01, 58.79 46.61, 98.15 1.85 M4.99 109.01 C41.79 67.27, 77.27 24.79, 98.15 1.85 M4.47 121.81 C45.62 75.19, 83.56 28.45, 108.78 1.81 M4.47 121.81 C26.88 97.76, 47.45 72.01, 108.78 1.81 M4.6 133.85 C32.52 100.65, 61.07 66.73, 119.41 1.78 M4.6 133.85 C38.41 95.55, 70.12 59.51, 119.41 1.78 M4.73 145.89 C34.79 109.71, 66.38 77.43, 130.04 1.74 M4.73 145.89 C46.71 97.48, 90.13 47.37, 130.04 1.74 M4.87 157.93 C49.1 105.02, 96.38 51.22, 140.67 1.71 M4.87 157.93 C59.73 95.23, 113.59 32.84, 140.67 1.71 M5 169.97 C62.57 103.52, 120.11 39.4, 150.65 2.43 M5 169.97 C35.54 133.92, 66.96 98.34, 150.65 2.43 M4.48 182.77 C42.61 141.03, 76.57 101.41, 161.28 2.39 M4.48 182.77 C65 114.85, 123.24 49, 161.28 2.39 M4.61 194.81 C59.76 134.11, 112 70.8, 171.91 2.36 M4.61 194.81 C71.29 118.17, 135.96 42.04, 171.91 2.36 M4.74 206.85 C53.42 150.56, 103.58 93.54, 182.54 2.32 M4.74 206.85 C63.22 138.37, 123.14 69.5, 182.54 2.32 M4.88 218.89 C58.88 158.5, 111.87 96.31, 193.17 2.29 M4.88 218.89 C66.5 147.87, 129.63 75.5, 193.17 2.29 M5.01 230.93 C52.54 178.36, 100.13 123.91, 203.8 2.26 M5.01 230.93 C49.43 182.19, 90.61 132.63, 203.8 2.26 M4.49 243.73 C78.51 159.47, 151.08 76.83, 214.43 2.22 M4.49 243.73 C50.2 192.18, 95.65 139.08, 214.43 2.22 M4.62 255.77 C72.26 177.3, 138.11 102.74, 225.06 2.19 M4.62 255.77 C55.34 195.66, 107.76 136.19, 225.06 2.19 M4.75 267.81 C69.56 192.04, 136.04 115.86, 235.69 2.15 M4.75 267.81 C71.55 191.61, 138.74 114.4, 235.69 2.15 M4.89 279.85 C72.68 202.49, 138.8 125.32, 246.32 2.12 M4.89 279.85 C56.56 221.56, 109.18 161.72, 246.32 2.12 M5.02 291.89 C84.93 197.49, 166.59 103.69, 256.95 2.08 M5.02 291.89 C88.4 195.02, 172.77 98.98, 256.95 2.08 M4.5 304.69 C64.47 235.68, 124.29 165.66, 267.58 2.05 M4.5 304.69 C81.43 218.21, 157.3 131.67, 267.58 2.05 M4.63 316.73 C62.44 251.82, 119.34 184.96, 278.21 2.01 M4.63 316.73 C108.67 196.79, 212.96 77.53, 278.21 2.01 M4.76 328.77 C117.64 200.44, 229.81 69.57, 288.84 1.98 M4.76 328.77 C111.3 206.89, 215.62 86.6, 288.84 1.98 M4.9 340.81 C95.64 237.64, 184.61 133.18, 299.47 1.94 M4.9 340.81 C69.71 269.12, 132.98 196.74, 299.47 1.94 M5.03 352.85 C100.09 244.18, 193.73 137.82, 310.1 1.91 M5.03 352.85 C89.8 253.23, 174.68 154.57, 310.1 1.91 M4.51 365.65 C101.87 254.07, 200.52 140.66, 320.73 1.88 M4.51 365.65 C90.89 268.28, 176.35 170.16, 320.73 1.88 M4.64 377.69 C85.83 284.45, 169.45 188.86, 331.36 1.84 M4.64 377.69 C82.98 289.29, 161.5 199.14, 331.36 1.84 M4.77 389.73 C122.63 255.2, 238.06 121.31, 341.99 1.81 M4.77 389.73 C114.34 264.08, 223.48 138.39, 341.99 1.81 M4.91 401.77 C75.38 320.33, 146.98 239.17, 352.62 1.77 M4.91 401.77 C132.26 257.77, 257.86 112.58, 352.62 1.77 M1.1 418.34 C95.93 306.08, 191.21 197.09, 363.25 1.74 M1.1 418.34 C77.46 332.17, 152.37 246.3, 363.25 1.74 M2.55 428.87 C122.43 292.36, 240.44 156.98, 373.88 1.7 M2.55 428.87 C137.57 273.64, 272.04 118.86, 373.88 1.7 M6.62 436.38 C136.72 288.18, 265.39 140.23, 383.85 2.42 M6.62 436.38 C116.19 309.23, 227.33 181.95, 383.85 2.42 M10.69 443.89 C94.91 348.28, 177.56 251.29, 394.48 2.39 M10.69 443.89 C107.23 330.94, 205.7 218.05, 394.48 2.39 M17.38 448.39 C165.59 280.61, 311.7 112.96, 405.11 2.35 M17.38 448.39 C98.2 354.3, 179.63 260.3, 405.11 2.35 M24.07 452.88 C144.59 312.53, 265.35 174.8, 415.74 2.32 M24.07 452.88 C123.23 338.12, 222.69 224.23, 415.74 2.32 M34.7 452.85 C114.6 360.17, 193.94 269.3, 426.37 2.29 M34.7 452.85 C166.17 301.75, 295.53 152.31, 426.37 2.29 M45.33 452.81 C151.67 330.68, 256.54 209.74, 437 2.25 M45.33 452.81 C147.66 334.19, 251.76 213.96, 437 2.25 M55.96 452.78 C200.62 285.73, 345.46 118.93, 447.63 2.22 M55.96 452.78 C163.75 326.86, 272.76 201.96, 447.63 2.22 M66.59 452.74 C206.69 292.41, 345.59 132.98, 458.26 2.18 M66.59 452.74 C146.56 361.93, 225.55 270.9, 458.26 2.18 M77.22 452.71 C183.45 332.56, 289.15 211.88, 468.89 2.15 M77.22 452.71 C163.43 352.77, 249.17 254.36, 468.89 2.15 M87.85 452.67 C206.26 317.13, 323.5 182.18, 479.52 2.11 M87.85 452.67 C191.5 331.57, 296.81 210.19, 479.52 2.11 M98.48 452.64 C176.44 360.76, 255.26 271.68, 490.15 2.08 M98.48 452.64 C246.59 283.3, 393.48 114.68, 490.15 2.08 M109.11 452.61 C192 356.39, 275.76 260.24, 500.78 2.04 M109.11 452.61 C215.28 331.53, 321.31 209.51, 500.78 2.04 M119.75 452.57 C240.25 314.85, 358.61 177.58, 511.41 2.01 M119.75 452.57 C242.04 310.61, 365.62 168.6, 511.41 2.01 M130.38 452.54 C240.81 323.47, 351.97 196.92, 522.04 1.98 M130.38 452.54 C254.33 309.55, 377.5 168.37, 522.04 1.98 M141.01 452.5 C237.08 342.06, 332.18 234.08, 532.67 1.94 M141.01 452.5 C239.8 339.15, 338.89 226.09, 532.67 1.94 M151.64 452.47 C257.68 332.09, 364.32 209.59, 543.3 1.91 M151.64 452.47 C271.05 317.09, 388.29 181.84, 543.3 1.91 M162.27 452.43 C281.59 316.91, 397.38 182.49, 553.28 2.63 M162.27 452.43 C298.91 294, 435.79 135.92, 553.28 2.63 M172.9 452.4 C257.23 354.95, 341.77 259.17, 564.56 1.84 M172.9 452.4 C264.73 347.18, 355 244.02, 564.56 1.84 M183.53 452.36 C299.23 321.82, 413.8 191.74, 571.26 6.33 M183.53 452.36 C269.61 351.66, 356.26 251.66, 571.26 6.33 M194.16 452.33 C320.54 304.24, 448.28 158, 577.95 10.82 M194.16 452.33 C309.73 318.4, 425.98 184.83, 577.95 10.82 M204.79 452.3 C305.29 337.7, 406.65 221.06, 581.36 19.09 M204.79 452.3 C294.1 350.84, 382.1 248.96, 581.36 19.09 M215.42 452.26 C332.5 317.75, 448.25 185.73, 582.81 29.62 M215.42 452.26 C296.06 360.13, 376.05 268.73, 582.81 29.62 M226.05 452.23 C364.72 290.97, 505.43 130.93, 587.53 36.38 M226.05 452.23 C365.95 288.59, 507.43 125.83, 587.53 36.38 M236.68 452.19 C318.93 359.15, 400.13 265.38, 587.01 49.18 M236.68 452.19 C330.64 345.32, 424.4 237.65, 587.01 49.18 M247.31 452.16 C333.44 354.67, 417.37 257.39, 587.14 61.22 M247.31 452.16 C331.43 353.69, 416.63 255.43, 587.14 61.22 M257.94 452.12 C333.65 364.28, 407.91 278.25, 587.28 73.26 M257.94 452.12 C339.88 357.07, 422.07 262.29, 587.28 73.26 M267.91 452.84 C386.07 316.01, 505.97 179.06, 587.41 85.3 M267.91 452.84 C338.22 372.44, 407.71 291.81, 587.41 85.3 M278.54 452.81 C349.21 372.51, 418.98 291.46, 587.54 97.34 M278.54 452.81 C389.48 324.66, 500.38 197.33, 587.54 97.34 M289.17 452.77 C379.9 349.17, 472.82 244.16, 587.02 110.14 M289.17 452.77 C362.58 366.58, 438.18 280.42, 587.02 110.14 M299.8 452.74 C364.45 378.62, 429.51 304.72, 587.15 122.18 M299.8 452.74 C382.69 360.77, 464.21 266.6, 587.15 122.18 M310.43 452.7 C402 347.76, 491.12 244.55, 587.29 134.22 M310.43 452.7 C407.64 339.07, 506.26 225.85, 587.29 134.22 M321.06 452.67 C374.12 390.29, 428.2 329.01, 587.42 146.26 M321.06 452.67 C406.45 355.58, 490.25 258.89, 587.42 146.26 M331.69 452.64 C415.8 356.58, 502.22 257.99, 587.55 158.3 M331.69 452.64 C402.29 371.44, 472.9 289.38, 587.55 158.3 M342.32 452.6 C393.31 394.58, 442.46 336.53, 587.03 171.09 M342.32 452.6 C401.93 383.65, 461.92 315.54, 587.03 171.09 M352.95 452.57 C434.49 358.52, 516.53 265.11, 587.16 183.14 M352.95 452.57 C405.14 392.36, 455.98 332.76, 587.16 183.14 M363.58 452.53 C422.64 385.9, 481.56 317.24, 587.3 195.18 M363.58 452.53 C419.43 387.41, 475.81 322.87, 587.3 195.18 M374.21 452.5 C423.47 395.4, 474.25 337.65, 587.43 207.22 M374.21 452.5 C443.02 372.41, 514.15 291.64, 587.43 207.22 M384.84 452.46 C442.05 385.71, 496.9 319.75, 587.56 219.26 M384.84 452.46 C431.4 400.3, 477.65 347.69, 587.56 219.26 M395.47 452.43 C467.6 371.3, 538.72 288.98, 587.04 232.05 M395.47 452.43 C433.97 407.18, 473.68 362.69, 587.04 232.05 M406.1 452.39 C470.28 382.51, 533.02 310.1, 587.17 244.09 M406.1 452.39 C451.3 399, 497.11 346.45, 587.17 244.09 M416.73 452.36 C476.08 380.26, 537.33 310.65, 587.31 256.14 M416.73 452.36 C484.8 375.34, 551.14 297.92, 587.31 256.14 M427.36 452.33 C460.6 413.52, 494.6 374.71, 587.44 268.18 M427.36 452.33 C479.51 393.21, 528.84 335.22, 587.44 268.18 M437.99 452.29 C488.95 393.02, 540.67 335.8, 587.57 280.22 M437.99 452.29 C481.95 403.57, 524.09 354.06, 587.57 280.22 M448.62 452.26 C477.9 420.74, 503.38 389.68, 587.05 293.01 M448.62 452.26 C503.39 389.93, 556.42 328.8, 587.05 293.01 M459.25 452.22 C495.38 412.77, 528.91 373.82, 587.18 305.05 M459.25 452.22 C487.37 417.59, 516.68 385.78, 587.18 305.05 M469.88 452.19 C511.36 404.04, 551.35 356.67, 587.32 317.09 M469.88 452.19 C509.77 404.04, 553.48 356.08, 587.32 317.09 M480.51 452.15 C507.46 421.24, 530.36 395.66, 587.45 329.14 M480.51 452.15 C502.94 427.58, 526.22 402.48, 587.45 329.14 M491.14 452.12 C511.82 427.16, 533.93 403.03, 587.58 341.18 M491.14 452.12 C520.17 419.09, 548.35 385.33, 587.58 341.18 M501.12 452.84 C530.79 420.13, 562.91 382.26, 587.06 353.97 M501.12 452.84 C532.19 418.69, 563.91 381.94, 587.06 353.97 M511.75 452.8 C533.75 427.04, 558.41 401.17, 587.19 366.01 M511.75 452.8 C540.02 420.4, 569.66 386.27, 587.19 366.01 M522.38 452.77 C537.53 432.41, 555.79 416.71, 587.33 378.05 M522.38 452.77 C539.17 431.39, 557.77 410.24, 587.33 378.05 M533.01 452.74 C546.15 438.69, 556.16 424.81, 587.46 390.09 M533.01 452.74 C553.18 428.05, 573.44 403.95, 587.46 390.09 M543.64 452.7 C554.74 440.42, 563.88 430.02, 587.59 402.14 M543.64 452.7 C556.74 437.51, 571.65 421.66, 587.59 402.14 M553.61 453.42 C560.17 445.14, 569.35 435.23, 583.13 419.46 M553.61 453.42 C564.15 439.17, 577.26 427.38, 583.13 419.46" stroke="#40c057" stroke-width="1" fill="none"></path>
        <path d="M32 0 M32 0 C150.76 2.17, 269.93 0.89, 550.02 0 M550.02 0 C569.61 0.62, 581.75 12.04, 582.02 32 M582.02 32 C581.03 151.61, 583.11 270.92, 582.02 417.85 M582.02 417.85 C581.08 438.2, 571.11 448.82, 550.02 449.85 M550.02 449.85 C421.64 450.2, 293.11 450.71, 32 449.85 M32 449.85 C10.88 450.7, -1.54 440.77, 0 417.85 M0 417.85 C-0.08 278.48, -1.1 140.78, 0 32 M0 32 C0.28 9.28, 11.6 -1.39, 32 0" stroke="#2b8a3e" stroke-width="2.5" fill="none" stroke-dasharray="1.5 8"></path>
    </g>
    <g stroke-linecap="round" transform="translate(26.119044424644017 58.952338430338386) rotate(0 555.8342728495745 25.288012943313333)">
        <path d="M5.01 1.7 C5.01 1.7, 5.01 1.7, 5.01 1.7 M5.01 1.7 C5.01 1.7, 5.01 1.7, 5.01 1.7 M6.45 12.23 C9.38 9.88, 11.15 5.02, 14.98 2.42 M6.45 12.23 C8.52 10, 10.46 8.3, 14.98 2.42 M5.93 25.03 C13.13 16.14, 18.79 12.6, 25.61 2.39 M5.93 25.03 C12.17 18.23, 16.1 11.51, 25.61 2.39 M2.78 40.84 C12.65 30.61, 24.92 16.68, 36.24 2.35 M2.78 40.84 C12.1 30.3, 21.63 19.78, 36.24 2.35 M5.54 49.86 C13.89 39.29, 27.83 24.76, 46.87 2.32 M5.54 49.86 C15.17 39.4, 26.21 27.14, 46.87 2.32 M14.2 52.09 C30.99 34.19, 42.44 18.28, 57.5 2.28 M14.2 52.09 C28.1 35.38, 41.64 19.46, 57.5 2.28 M24.83 52.06 C33.28 40.91, 42.81 32.94, 68.13 2.25 M24.83 52.06 C41.75 35.04, 57.48 15.18, 68.13 2.25 M35.46 52.03 C46.57 36.79, 56.27 27.17, 78.76 2.21 M35.46 52.03 C45.58 41.44, 54.58 31.85, 78.76 2.21 M46.09 51.99 C60.75 36.05, 73.85 21.91, 89.39 2.18 M46.09 51.99 C61.62 33.16, 77.18 15.04, 89.39 2.18 M56.72 51.96 C72.57 36.14, 87.45 19.18, 100.02 2.15 M56.72 51.96 C69.42 37.57, 82.73 23.67, 100.02 2.15 M67.35 51.92 C78.63 42.98, 85.01 30.82, 110.65 2.11 M67.35 51.92 C77.56 38.95, 89.31 26.39, 110.65 2.11 M77.98 51.89 C95.95 33.03, 112.31 15.3, 121.28 2.08 M77.98 51.89 C87.17 41.03, 95.37 30.79, 121.28 2.08 M88.61 51.85 C102.06 34.82, 115.29 22.56, 131.91 2.04 M88.61 51.85 C98.79 38.79, 109.95 27.23, 131.91 2.04 M99.24 51.82 C107.81 40.7, 117.41 30.66, 142.54 2.01 M99.24 51.82 C114.47 34.3, 127.7 17.53, 142.54 2.01 M109.87 51.78 C121.11 37.89, 132.28 24.26, 153.17 1.97 M109.87 51.78 C120.37 39.1, 131.46 25.18, 153.17 1.97 M120.5 51.75 C137.17 31.87, 151.75 14.63, 163.8 1.94 M120.5 51.75 C131.51 38.08, 144.51 24.35, 163.8 1.94 M131.13 51.72 C147.52 34.76, 163.22 17.58, 174.43 1.9 M131.13 51.72 C140.67 41.46, 148.93 31.54, 174.43 1.9 M141.76 51.68 C153.23 40, 166.66 26.83, 185.06 1.87 M141.76 51.68 C151.86 40.49, 161.18 30.34, 185.06 1.87 M152.39 51.65 C164.6 37.49, 177.26 22.72, 195.69 1.84 M152.39 51.65 C162.87 38.52, 174.7 24.32, 195.69 1.84 M162.37 52.37 C171.12 40.84, 180.54 33.96, 205.67 2.56 M162.37 52.37 C178.7 32.82, 194.27 15.82, 205.67 2.56 M173 52.33 C183.05 42.01, 192.22 32.01, 216.3 2.52 M173 52.33 C185.48 38.43, 196.53 25.58, 216.3 2.52 M183.63 52.3 C198.42 38.26, 209.71 22.52, 226.93 2.49 M183.63 52.3 C196.56 37.28, 211.03 21, 226.93 2.49 M194.26 52.26 C206.05 36.69, 218.73 25.42, 237.56 2.45 M194.26 52.26 C207.79 35.87, 221.42 21.48, 237.56 2.45 M204.89 52.23 C215.71 38.17, 228 27.62, 248.19 2.42 M204.89 52.23 C215.23 39.72, 227.51 27.93, 248.19 2.42 M215.52 52.19 C227.22 40.85, 240.55 25.94, 258.82 2.38 M215.52 52.19 C229.77 36.88, 241.78 22.13, 258.82 2.38 M226.15 52.16 C241.32 37.18, 251.14 22.84, 269.45 2.35 M226.15 52.16 C241.56 34.55, 256.11 16.27, 269.45 2.35 M236.78 52.12 C246.05 40.1, 256.23 32.1, 280.08 2.31 M236.78 52.12 C247.21 39.76, 257.63 29.47, 280.08 2.31 M247.41 52.09 C260.59 36.51, 274.34 25, 290.71 2.28 M247.41 52.09 C257.62 40.46, 266.07 29.96, 290.71 2.28 M258.04 52.06 C271.38 34.85, 286.37 19.38, 301.34 2.24 M258.04 52.06 C270.85 37.13, 284.02 22.39, 301.34 2.24 M268.67 52.02 C280.6 39.03, 293.38 24.24, 311.97 2.21 M268.67 52.02 C279.57 40.45, 288.6 28.46, 311.97 2.21 M279.3 51.99 C294.61 34.97, 308.44 21.87, 322.6 2.18 M279.3 51.99 C288.61 40.24, 298.96 29.87, 322.6 2.18 M289.93 51.95 C306.44 31.2, 324.51 15.01, 333.23 2.14 M289.93 51.95 C306.44 32.14, 324.07 11.85, 333.23 2.14 M300.56 51.92 C311.2 40.57, 321.27 28.08, 343.86 2.11 M300.56 51.92 C311.71 38.99, 323.19 26.28, 343.86 2.11 M311.19 51.88 C323.29 38.72, 332.27 26.54, 354.49 2.07 M311.19 51.88 C321.36 39.82, 332.9 25.9, 354.49 2.07 M321.82 51.85 C333.12 38.5, 340.53 28.49, 365.12 2.04 M321.82 51.85 C332.52 38.79, 342.36 26.92, 365.12 2.04 M332.45 51.81 C347.97 33.3, 365.94 14.94, 375.75 2 M332.45 51.81 C342.31 41.73, 350.62 30.54, 375.75 2 M343.08 51.78 C353.41 42.33, 362.27 30.38, 386.38 1.97 M343.08 51.78 C358.05 33.68, 373.52 16.41, 386.38 1.97 M353.71 51.75 C365.12 37.8, 381.47 22.95, 397.01 1.93 M353.71 51.75 C363.38 39.11, 374.77 27.69, 397.01 1.93 M364.34 51.71 C374.66 40.34, 384.41 30.99, 407.64 1.9 M364.34 51.71 C376.48 38.89, 388.69 24.05, 407.64 1.9 M374.97 51.68 C390.3 34.19, 402.19 19.23, 418.27 1.87 M374.97 51.68 C389.87 33.82, 405.73 16.01, 418.27 1.87 M385.6 51.64 C394.14 42.11, 403.54 32.98, 428.9 1.83 M385.6 51.64 C399.28 36.02, 412.57 20.2, 428.9 1.83 M395.57 52.36 C408.23 37.05, 425.43 18.66, 438.87 2.55 M395.57 52.36 C407.16 39.24, 418.56 24.69, 438.87 2.55 M406.2 52.33 C415.03 41.05, 422.48 30.03, 449.5 2.52 M406.2 52.33 C416.44 40.11, 428.17 28.09, 449.5 2.52 M416.83 52.29 C430.56 33.99, 445.92 17.83, 460.13 2.48 M416.83 52.29 C427.16 41.47, 435.77 29.8, 460.13 2.48 M427.46 52.26 C438.19 39.85, 449.7 25.29, 470.76 2.45 M427.46 52.26 C438.55 39.08, 449.83 26.57, 470.76 2.45 M438.09 52.22 C447.43 39.89, 458.38 28.23, 481.39 2.41 M438.09 52.22 C451.21 36.53, 466.57 20.4, 481.39 2.41 M448.72 52.19 C462.39 37.89, 471.24 23.72, 492.02 2.38 M448.72 52.19 C458.03 40.38, 468.22 29.48, 492.02 2.38 M459.35 52.16 C476.92 33.97, 493.26 14.5, 502.65 2.34 M459.35 52.16 C467.56 41.63, 476.68 32.73, 502.65 2.34 M469.98 52.12 C486.41 36.58, 501.81 18.56, 513.28 2.31 M469.98 52.12 C480.97 38.72, 491.73 26.56, 513.28 2.31 M480.61 52.09 C494.59 33.48, 510 16.81, 523.91 2.28 M480.61 52.09 C498.14 32.95, 514.09 13.23, 523.91 2.28 M491.24 52.05 C499.28 41.41, 509.35 30.19, 534.54 2.24 M491.24 52.05 C505.92 35.81, 518.3 20.08, 534.54 2.24 M501.87 52.02 C516.27 34.52, 532.13 18.93, 545.17 2.21 M501.87 52.02 C515.18 37.97, 526.7 23.52, 545.17 2.21 M512.5 51.98 C522.71 42.45, 528.44 33.87, 555.8 2.17 M512.5 51.98 C529.77 32.21, 545.67 13.78, 555.8 2.17 M523.13 51.95 C536.28 38.7, 547.14 25.83, 566.43 2.14 M523.13 51.95 C532.6 39.66, 542.69 29.96, 566.43 2.14 M533.76 51.91 C549.63 33.83, 563.89 16.05, 577.06 2.1 M533.76 51.91 C547.86 34.01, 565.13 16.46, 577.06 2.1 M544.39 51.88 C555.88 38.42, 563.93 29.93, 587.69 2.07 M544.39 51.88 C553.2 42.18, 563.4 32.12, 587.69 2.07 M555.02 51.84 C563.36 40.1, 573.56 29.67, 598.32 2.03 M555.02 51.84 C568.53 37.06, 581.05 21.31, 598.32 2.03 M565.65 51.81 C580.47 36.25, 597.71 15.5, 608.95 2 M565.65 51.81 C580.88 35.05, 597.19 16.02, 608.95 2 M576.28 51.78 C588.41 37.22, 603.45 22.42, 619.58 1.96 M576.28 51.78 C592.27 33.38, 609.71 13.28, 619.58 1.96 M586.91 51.74 C596.39 37.66, 609.14 28.3, 630.21 1.93 M586.91 51.74 C597.79 37.18, 610.27 23.07, 630.21 1.93 M597.54 51.71 C608.35 40.36, 615.97 29.21, 640.84 1.9 M597.54 51.71 C613.54 32.05, 629.5 12.88, 640.84 1.9 M608.17 51.67 C619.13 39.55, 628.14 29.32, 651.47 1.86 M608.17 51.67 C621.07 36.7, 635.78 21.09, 651.47 1.86 M618.8 51.64 C629.27 38.92, 642.36 24.5, 662.1 1.83 M618.8 51.64 C634.62 31.19, 653.03 13.31, 662.1 1.83 M628.78 52.36 C637.15 43.15, 646.75 28.47, 672.08 2.55 M628.78 52.36 C638.53 41.9, 647.12 32.04, 672.08 2.55 M639.41 52.32 C649.36 40.84, 655.93 31.34, 682.71 2.51 M639.41 52.32 C650.8 39.66, 660.67 27.01, 682.71 2.51 M650.04 52.29 C661.99 38.1, 678.27 21.78, 693.34 2.48 M650.04 52.29 C664.26 35.96, 679.23 17.98, 693.34 2.48 M660.67 52.25 C676.28 35.24, 689.77 19.24, 703.97 2.44 M660.67 52.25 C675.78 35.41, 690.35 17.24, 703.97 2.44 M671.3 52.22 C681.86 41.62, 689.82 29.46, 714.6 2.41 M671.3 52.22 C683.01 37.95, 694.67 24.76, 714.6 2.41 M681.93 52.19 C690.79 40.91, 703.44 27.41, 725.23 2.37 M681.93 52.19 C692.99 38.51, 702.44 27.76, 725.23 2.37 M692.56 52.15 C706.76 38.11, 718.42 22.7, 735.86 2.34 M692.56 52.15 C707.22 36.03, 719.58 20.56, 735.86 2.34 M703.19 52.12 C720.5 35.1, 734.27 16.86, 746.49 2.31 M703.19 52.12 C712.62 40.27, 721.88 29.3, 746.49 2.31 M713.82 52.08 C726.97 37.19, 737.25 22.45, 757.12 2.27 M713.82 52.08 C725.56 38.25, 737.98 23.42, 757.12 2.27 M724.45 52.05 C736.08 38.46, 748.02 28.02, 767.75 2.24 M724.45 52.05 C738.53 35.36, 752.01 18.49, 767.75 2.24 M735.08 52.01 C746.24 40.14, 756.39 27.06, 778.38 2.2 M735.08 52.01 C747.46 37.55, 759.2 23.4, 778.38 2.2 M745.71 51.98 C753.74 39.08, 762.26 30.04, 789.01 2.17 M745.71 51.98 C760.4 35.16, 774.45 20.18, 789.01 2.17 M756.34 51.94 C771.6 35.22, 783.04 20.55, 799.64 2.13 M756.34 51.94 C769.88 37.47, 781.06 21.25, 799.64 2.13 M766.97 51.91 C780.71 38.91, 792.95 24.08, 810.27 2.1 M766.97 51.91 C783.54 33.34, 801.21 14.18, 810.27 2.1 M777.6 51.87 C792.58 37.42, 804.38 21.29, 820.9 2.06 M777.6 51.87 C788.21 38.63, 799.07 27.81, 820.9 2.06 M788.23 51.84 C798.48 40.82, 809.24 27.32, 831.53 2.03 M788.23 51.84 C805.11 32.83, 820.56 15.07, 831.53 2.03 M798.86 51.81 C812.62 36.19, 824 22.78, 842.16 2 M798.86 51.81 C812.7 37.16, 823.87 21.61, 842.16 2 M809.49 51.77 C822.21 35.42, 839.98 18.96, 852.79 1.96 M809.49 51.77 C825.2 34.05, 839.84 17.54, 852.79 1.96 M820.12 51.74 C831.33 39.99, 839.78 31.26, 863.42 1.93 M820.12 51.74 C835.37 32.25, 852.45 15.23, 863.42 1.93 M830.75 51.7 C846.63 35.33, 863.86 17.29, 874.05 1.89 M830.75 51.7 C840.43 40.07, 851.97 28.49, 874.05 1.89 M841.38 51.67 C854.24 35.19, 866.04 19.54, 884.68 1.86 M841.38 51.67 C851.79 38.81, 862.32 27.04, 884.68 1.86 M852.01 51.63 C864.82 37.68, 878.65 23.33, 895.31 1.82 M852.01 51.63 C861.36 39.73, 871.96 29.19, 895.31 1.82 M861.98 52.35 C875.06 35.01, 890.07 20.9, 905.28 2.54 M861.98 52.35 C873.27 41.42, 881.95 30.25, 905.28 2.54 M872.61 52.32 C890.43 35.44, 903.58 15.11, 915.91 2.51 M872.61 52.32 C889.42 33.89, 904.73 16.51, 915.91 2.51 M883.24 52.28 C900.07 33.48, 914.88 16.14, 926.54 2.47 M883.24 52.28 C896.99 38.09, 907.96 23.53, 926.54 2.47 M893.87 52.25 C911.47 31.06, 926.95 12.3, 937.17 2.44 M893.87 52.25 C906.95 37.91, 920.27 22.31, 937.17 2.44 M904.5 52.22 C923.05 34.17, 940.5 15.24, 947.8 2.4 M904.5 52.22 C919.55 34.16, 935.69 17.94, 947.8 2.4 M915.13 52.18 C924.51 40.92, 937.93 27.63, 958.43 2.37 M915.13 52.18 C932.5 33.72, 948.5 14.74, 958.43 2.37 M925.76 52.15 C937.73 39.73, 948.71 25.97, 969.06 2.34 M925.76 52.15 C941.45 34.59, 957.95 16.24, 969.06 2.34 M936.39 52.11 C943.81 39.7, 956.69 28.42, 979.69 2.3 M936.39 52.11 C951.57 34.6, 967.76 15.76, 979.69 2.3 M947.02 52.08 C959.29 39.96, 970.18 24.92, 990.32 2.27 M947.02 52.08 C958.61 40.54, 968.21 28.46, 990.32 2.27 M957.65 52.04 C969.86 41.61, 976.59 28.59, 1000.95 2.23 M957.65 52.04 C969.49 37.82, 982.62 22.95, 1000.95 2.23 M968.28 52.01 C977.9 38.68, 987.12 29.36, 1011.58 2.2 M968.28 52.01 C984.45 33.89, 998.43 17.51, 1011.58 2.2 M978.91 51.97 C989.86 42.15, 997.74 31.54, 1022.21 2.16 M978.91 51.97 C988.9 41.47, 998.4 31.28, 1022.21 2.16 M989.54 51.94 C1005.15 30.84, 1022.61 13.39, 1032.84 2.13 M989.54 51.94 C1006.85 32.31, 1022.25 13.06, 1032.84 2.13 M1000.17 51.91 C1015.2 36.2, 1029.38 17.28, 1043.47 2.09 M1000.17 51.91 C1011.57 38.34, 1023.33 26.05, 1043.47 2.09 M1010.8 51.87 C1023.97 34.54, 1038.89 18.82, 1054.1 2.06 M1010.8 51.87 C1024.58 36.19, 1036.48 21.62, 1054.1 2.06 M1021.43 51.84 C1033.02 38.66, 1042.5 27.87, 1064.73 2.03 M1021.43 51.84 C1030.29 40.62, 1038.74 30.42, 1064.73 2.03 M1032.06 51.8 C1042.38 42.77, 1051.46 30.15, 1075.36 1.99 M1032.06 51.8 C1041.43 40.12, 1052.91 29, 1075.36 1.99 M1042.69 51.77 C1056.62 36.2, 1069.23 20.51, 1085.99 1.96 M1042.69 51.77 C1053.3 39, 1066.51 25.75, 1085.99 1.96 M1053.32 51.73 C1062.71 41.76, 1071.91 31.78, 1096.62 1.92 M1053.32 51.73 C1067.48 35.96, 1079.14 20.36, 1096.62 1.92 M1063.95 51.7 C1080.06 33.26, 1096.44 16.17, 1107.25 1.89 M1063.95 51.7 C1076.83 36.08, 1090.64 21.8, 1107.25 1.89 M1074.58 51.66 C1084.3 41.3, 1092.92 28.94, 1111.98 8.65 M1074.58 51.66 C1084.43 41.5, 1093.05 31.39, 1111.98 8.65 M1085.22 51.63 C1093.47 42.37, 1106.04 29.36, 1112.77 19.93 M1085.22 51.63 C1090.92 45.55, 1097.23 36.98, 1112.77 19.93 M1095.19 52.35 C1101.21 44.94, 1107.99 34.37, 1112.9 31.97 M1095.19 52.35 C1101.31 44.83, 1107.75 38.41, 1112.9 31.97" stroke="#868e96" stroke-width="1" fill="none"></path>
        <path d="M12.64 0 M12.64 0 C345.71 1.41, 679.8 1.1, 1099.02 0 M1099.02 0 C1109.06 -0.06, 1111.45 5.55, 1111.67 12.64 M1111.67 12.64 C1113 20.65, 1111.01 28.79, 1111.67 37.93 M1111.67 37.93 C1112.94 45.47, 1108.79 52.16, 1099.02 50.58 M1099.02 50.58 C807.4 53.99, 516.9 52.56, 12.64 50.58 M12.64 50.58 C2.59 51.02, 0.15 46.57, 0 37.93 M0 37.93 C1.38 30.2, 0.3 21.8, 0 12.64 M0 12.64 C-0.1 5.67, 2.32 -0.88, 12.64 0" stroke="#343a40" stroke-width="2.5" fill="none" stroke-dasharray="1.5 8"></path>
    </g>
    <g transform="translate(23.677035410486496 10) rotate(0 45 12.5)">
        <text x="0" y="18" font-family="Virgil, Segoe UI Emoji" font-size="20px" fill="#343a40" text-anchor="start" style="white-space: pre;" direction="ltr">Keyspace</text>
    </g>
    <g stroke-linecap="round">
        <g transform="translate(570.8052156415033 225.82890416844657) rotate(0 -179.7277326390713 59.9975201125967)">
            <path d="M0.41 0.39 C-59.49 20.4, -299.65 99.94, -359.87 119.61" stroke="#343a40" stroke-width="2.5" fill="none" stroke-dasharray="1.5 8"></path>
        </g>
        <g transform="translate(570.8052156415033 225.82890416844657) rotate(0 -179.7277326390713 59.9975201125967)">
            <path d="M-335.66 101.94 C-340.92 105.21, -349.14 110.74, -359.08 119.67" stroke="#343a40" stroke-width="2.5" fill="none" stroke-dasharray="1.5 6"></path>
        </g>
        <g transform="translate(570.8052156415033 225.82890416844657) rotate(0 -179.7277326390713 59.9975201125967)">
            <path d="M-329.24 121.43 C-336.12 119.57, -346.04 119.94, -359.08 119.67" stroke="#343a40" stroke-width="2.5" fill="none" stroke-dasharray="1.5 6"></path>
        </g>
    </g>
    <mask></mask>
    <g stroke-linecap="round">
        <g transform="translate(577.4555751684238 119.42469230444112) rotate(0 0.439737680782855 27.754329706868702)">
            <path d="M0.16 0.6 C0.26 9.58, 0.71 45.85, 0.72 54.91" stroke="#343a40" stroke-width="2.5" fill="none" stroke-dasharray="1.5 8"></path>
        </g>
        <g transform="translate(577.4555751684238 119.42469230444112) rotate(0 0.439737680782855 27.754329706868702)">
            <path d="M-8 28.08 C-6.98 35.27, -3.93 43.53, 0.83 53.3" stroke="#343a40" stroke-width="2.5" fill="none" stroke-dasharray="1.5 6"></path>
        </g>
        <g transform="translate(577.4555751684238 119.42469230444112) rotate(0 0.439737680782855 27.754329706868702)">
            <path d="M11.03 27.93 C6.18 35.19, 3.36 43.5, 0.83 53.3" stroke="#343a40" stroke-width="2.5" fill="none" stroke-dasharray="1.5 6"></path>
        </g>
    </g>
    <mask></mask>
    <g transform="translate(509.7673523226149 190.4654701700165) rotate(0 102 12.5)">
        <text x="0" y="18" font-family="Virgil, Segoe UI Emoji" font-size="20px" fill="#343a40" text-anchor="start" style="white-space: pre;" direction="ltr">indexed boolean field</text>
    </g>
    <g stroke-linecap="round">
        <g transform="translate(615.916203377652 227.42195527498552) rotate(0 165.8671715428518 58.97729349110523)">
            <path d="M-0.61 0.68 C54.83 20.21, 277.2 97.84, 332.34 117.27" stroke="#343a40" stroke-width="2.5" fill="none" stroke-dasharray="1.5 8"></path>
        </g>
        <g transform="translate(615.916203377652 227.42195527498552) rotate(0 165.8671715428518 58.97729349110523)">
            <path d="M303.48 119.17 C310.08 115.76, 318.29 119.3, 332.29 115.94" stroke="#343a40" stroke-width="2.5" fill="none" stroke-dasharray="1.5 6"></path>
        </g>
        <g transform="translate(615.916203377652 227.42195527498552) rotate(0 165.8671715428518 58.97729349110523)">
            <path d="M310.27 99.8 C315.02 101.66, 321.37 110.51, 332.29 115.94" stroke="#343a40" stroke-width="2.5" fill="none" stroke-dasharray="1.5 6"></path>
        </g>
    </g>
    <mask></mask>
    <g transform="translate(238.66753754493766 835.5351477900022) rotate(0 22 12.5)">
        <text x="0" y="18" font-family="Virgil, Segoe UI Emoji" font-size="20px" fill="#343a40" text-anchor="start" style="white-space: pre;" direction="ltr">true</text>
    </g>
    <g transform="translate(897.1509732216728 832.7461927715494) rotate(0 26 12.5)">
        <text x="0" y="18" font-family="Virgil, Segoe UI Emoji" font-size="20px" fill="#343a40" text-anchor="start" style="white-space: pre;" direction="ltr">false</text>
    </g>
</svg>