<svg version="1.1" xmlns="http://www.w3.org/2000/svg" viewBox="0 0 1148.439 884.244" width="2296.878" height="1768.488"><defs><style class="style-fonts">@font-face{font-family:&quot;Virgil&quot;;src:url(https://excalidraw.com/Virgil.woff2)}@font-face{font-family:&quot;Cascadia&quot;;src:url(https://excalidraw.com/Cascadia.woff2)}</style></defs><rect x="0" y="0" width="1148.439" height="884.244" fill="#fff"/><g stroke-linecap="round"><path d="M7.86 8.16 C7.86 8.16, 7.86 8.16, 7.86 8.16 M7.86 8.16 C7.86 8.16, 7.86 8.16, 7.86 8.16 M2.75 26.24 C9.2 18.73, 14.39 14.8, 21.12 5.11 M2.75 26.24 C7.81 19.94, 14.13 13.76, 21.12 5.11 M2.88 38.28 C11.59 28.43, 24.18 14.21, 34.37 2.05 M2.88 38.28 C9.96 30.76, 17.11 20.97, 34.37 2.05 M2.36 51.07 C15.23 37.11, 24.22 23.63, 45 2.02 M2.36 51.07 C17.61 34.66, 30.28 18.35, 45 2.02 M2.49 63.11 C19.99 41.69, 40.44 18.8, 55.63 1.98 M2.49 63.11 C13.03 49.72, 24.71 36.96, 55.63 1.98 M2.62 75.16 C26.85 50.18, 47.17 22.9, 66.26 1.95 M2.62 75.16 C17.5 58.62, 31.71 42.44, 66.26 1.95 M2.76 87.2 C20.07 68.51, 36.91 46.63, 76.23 2.67 M2.76 87.2 C26.61 59.34, 49.88 32.16, 76.23 2.67 M2.89 99.24 C19.56 76.4, 40.23 57.91, 86.86 2.63 M2.89 99.24 C18.68 79.23, 36.01 60.73, 86.86 2.63 M2.37 112.03 C35.66 74.19, 72.57 32.52, 97.49 2.6 M2.37 112.03 C41.26 68.17, 77.93 26.81, 97.49 2.6 M2.5 124.07 C35.03 86.98, 69.92 46.6, 108.12 2.57 M2.5 124.07 C40.2 79.33, 79.62 33.58, 108.12 2.57 M2.63 136.11 C31.53 105.25, 57.74 73.32, 120.07 1.02 M2.63 136.11 C34.16 99.05, 65.23 62.98, 120.07 1.02 M2.77 148.16 C37.77 107.95, 73.63 64.72, 128.07 4.01 M2.77 148.16 C52.34 93.35, 100.36 35.86, 128.07 4.01 M2.9 160.2 C39.84 117.58, 77.08 75.34, 135.42 7.75 M2.9 160.2 C44.78 113.45, 86.34 65.1, 135.42 7.75 M2.38 172.99 C48.28 121.34, 92.81 71.43, 140.8 13.75 M2.38 172.99 C31.17 140.47, 59.83 107.35, 140.8 13.75 M2.51 185.03 C30.83 153.05, 57.49 118.97, 143.56 22.77 M2.51 185.03 C48.18 132.07, 93.68 79.24, 143.56 22.77 M2.64 197.07 C51.98 141.91, 100.87 84.92, 148.94 28.77 M2.64 197.07 C49.95 140.78, 98.01 86.2, 148.94 28.77 M2.78 209.11 C39.8 165.12, 77.59 120.86, 148.42 41.57 M2.78 209.11 C61.16 141.81, 118.51 75.11, 148.42 41.57 M2.91 221.16 C36.93 178.79, 72.17 141.8, 148.55 53.61 M2.91 221.16 C50.62 167.82, 98.17 113.28, 148.55 53.61 M2.39 233.95 C54.89 172.09, 108.46 112.15, 148.69 65.65 M2.39 233.95 C40.01 190.88, 77.37 149.78, 148.69 65.65 M2.52 245.99 C44.06 201.47, 84.36 153.1, 148.82 77.69 M2.52 245.99 C51.62 189.28, 101.78 132.76, 148.82 77.69 M2.65 258.03 C59.63 193.32, 114.25 131.99, 148.95 89.73 M2.65 258.03 C48.68 204.16, 94.71 148.74, 148.95 89.73 M2.79 270.07 C43.88 225.68, 84.76 176.3, 149.09 101.77 M2.79 270.07 C56.91 208.82, 111.34 145.68, 149.09 101.77 M2.92 282.11 C35.36 243.95, 69.08 205.37, 148.56 114.57 M2.92 282.11 C42.34 237.28, 80.7 193.46, 148.56 114.57 M2.4 294.91 C60.67 228.08, 117.49 162.61, 148.7 126.61 M2.4 294.91 C34.18 260.68, 64.61 224.07, 148.7 126.61 M2.53 306.95 C35.44 268.61, 69.33 232.07, 148.83 138.65 M2.53 306.95 C39.85 265.8, 76.31 222.69, 148.83 138.65 M2.66 318.99 C56.97 258.7, 111.74 195.03, 148.96 150.69 M2.66 318.99 C44.26 270.77, 85.99 221.72, 148.96 150.69 M2.79 331.03 C43.9 281.94, 85.01 236.21, 149.1 162.73 M2.79 331.03 C41.62 286.52, 80.97 242.63, 149.1 162.73 M2.93 343.07 C40.77 296.95, 84.39 250.75, 148.57 175.53 M2.93 343.07 C35.15 307.03, 66.4 271.73, 148.57 175.53 M2.4 355.87 C48.93 302.59, 95.94 244.57, 148.71 187.57 M2.4 355.87 C34.4 319.06, 65.15 282.07, 148.71 187.57 M2.54 367.91 C56.53 305.15, 113.87 242.81, 148.84 199.61 M2.54 367.91 C41.53 322.83, 81.16 278.44, 148.84 199.61 M2.67 379.95 C47.83 328, 93.33 276.43, 148.97 211.65 M2.67 379.95 C34.94 341.05, 67.4 303.95, 148.97 211.65 M2.8 391.99 C41.07 348.56, 76.43 307.58, 149.11 223.69 M2.8 391.99 C45.23 343.32, 86.41 295.65, 149.11 223.69 M2.94 404.03 C53.41 344.73, 104.39 288.64, 149.24 235.73 M2.94 404.03 C50.87 348.73, 99.44 293.87, 149.24 235.73 M2.41 416.83 C40.68 372.06, 80.96 326.81, 148.72 248.53 M2.41 416.83 C57.73 351.03, 114.08 285.88, 148.72 248.53 M3.2 428.11 C32.91 391.15, 64.88 357.08, 148.85 260.57 M3.2 428.11 C61.02 362.85, 118.47 298.57, 148.85 260.57 M5.31 437.89 C54.88 380.08, 103.56 325.05, 148.98 272.61 M5.31 437.89 C40.4 397.33, 74.54 356.44, 148.98 272.61 M10.69 443.89 C45.21 403.69, 79.87 366.01, 149.12 284.65 M10.69 443.89 C61.82 383.96, 114.03 324.14, 149.12 284.65 M17.38 448.39 C65.81 393.07, 113.69 339.11, 149.25 296.69 M17.38 448.39 C45.12 416.95, 72.36 386.62, 149.25 296.69 M26.04 450.62 C55.76 416.78, 83.9 386.59, 149.38 308.73 M26.04 450.62 C60.84 408.95, 96.2 367.72, 149.38 308.73 M36.67 450.58 C73.75 407.99, 112.9 365.59, 148.86 321.53 M36.67 450.58 C81.26 401.44, 123.06 352.62, 148.86 321.53 M47.3 450.55 C79.27 412.02, 113.92 372.4, 148.99 333.57 M47.3 450.55 C69.72 424, 93.85 397.23, 148.99 333.57 M57.93 450.51 C85.55 420.04, 109.62 390.14, 149.12 345.61 M57.93 450.51 C91.39 412.45, 121.68 375.94, 149.12 345.61 M68.56 450.48 C92.6 420.14, 120.09 389.4, 149.26 357.65 M68.56 450.48 C92.78 421.73, 117.76 392.65, 149.26 357.65 M79.19 450.45 C102.16 422.59, 124 398.7, 149.39 369.69 M79.19 450.45 C98.44 427.8, 116.93 406.56, 149.39 369.69 M89.82 450.41 C103.91 436.69, 116.44 420.12, 148.87 382.49 M89.82 450.41 C112.85 423.83, 136.3 398.37, 148.87 382.49 M100.45 450.38 C118.91 428.5, 139.02 407.11, 149 394.53 M100.45 450.38 C117.01 433.26, 131.26 413.72, 149 394.53 M111.08 450.34 C124.92 434.1, 142.64 414.6, 149.13 406.57 M111.08 450.34 C123.41 436.4, 134.91 420.62, 149.13 406.57 M121.06 451.06 C128.87 439.95, 136.02 431.48, 147.3 420.87 M121.06 451.06 C128.9 441.3, 137.79 430.26, 147.3 420.87" stroke="#40c057" stroke-width="1" fill="none" transform="translate(10 371.81396565432624) rotate(0 71.9952004283432 224.9258754921807)"/><path d="M32 0 M32 0 C50.96 1.16, 73.3 1.36, 111.99 0 M111.99 0 C133.29 1.58, 142.86 11.92, 143.99 32 M143.99 32 C145.93 170.21, 145.17 306.69, 143.99 417.85 M143.99 417.85 C144.23 437.41, 132.19 450.08, 111.99 449.85 M111.99 449.85 C87.21 448.79, 58.71 449.06, 32 449.85 M32 449.85 C12.47 449.51, -0.81 439.5, 0 417.85 M0 417.85 C-0.79 263.81, -0.88 109.78, 0 32 M0 32 C-1.97 12.44, 9.63 0.52, 32 0" stroke="#2b8a3e" stroke-width="2.5" fill="none" stroke-dasharray="1.5 8" transform="translate(10 371.81396565432624) rotate(0 71.9952004283432 224.9258754921807)"/></g><g stroke-linecap="round"><path d="M5.01 1.7 C5.01 1.7, 5.01 1.7, 5.01 1.7 M5.01 1.7 C5.01 1.7, 5.01 1.7, 5.01 1.7 M6.45 12.23 C7.57 10.56, 11 6.95, 14.98 2.42 M6.45 12.23 C8.13 10.63, 9.89 8.06, 14.98 2.42 M5.93 25.03 C15.21 17.98, 20.13 6.17, 25.61 2.39 M5.93 25.03 C12.25 18.25, 16.36 12.5, 25.61 2.39 M2.78 40.84 C10.18 29.78, 18.04 23.3, 36.24 2.35 M2.78 40.84 C12.02 29.22, 21.39 19.55, 36.24 2.35 M5.54 49.86 C20.06 34.1, 33.09 16.42, 46.87 2.32 M5.54 49.86 C19.44 33.37, 34 18.83, 46.87 2.32 M14.2 52.09 C29.98 34.18, 43.5 16.72, 57.5 2.28 M14.2 52.09 C25.23 39.19, 36.76 25.73, 57.5 2.28 M24.83 52.06 C35.39 40.5, 42.64 31.21, 68.13 2.25 M24.83 52.06 C40.53 33.13, 56.98 14.37, 68.13 2.25 M35.46 52.03 C44.81 40.68, 58.24 23.6, 78.76 2.21 M35.46 52.03 C51.85 32.58, 69.95 13.63, 78.76 2.21 M46.09 51.99 C63.08 35.93, 76.63 18.89, 89.39 2.18 M46.09 51.99 C56.08 39.28, 68.61 26.83, 89.39 2.18 M56.72 51.96 C69.43 38.8, 79.04 28.36, 100.02 2.15 M56.72 51.96 C71.57 35.68, 84.88 17.82, 100.02 2.15 M67.35 51.92 C83.45 35.01, 98.07 16.68, 110.65 2.11 M67.35 51.92 C81.08 35.7, 95.2 19.07, 110.65 2.11 M77.98 51.89 C94.18 34.33, 107.08 20.44, 121.28 2.08 M77.98 51.89 C89.75 39.23, 98.81 26.72, 121.28 2.08 M88.61 51.85 C104.34 34.44, 120.34 17.4, 131.91 2.04 M88.61 51.85 C102.38 36.82, 114.9 22.79, 131.91 2.04 M99.24 51.82 C110.5 39.62, 123.38 22.94, 142.54 2.01 M99.24 51.82 C112.14 37.74, 124.29 21.6, 142.54 2.01 M109.87 51.78 C127.93 29.77, 144.46 12.35, 153.17 1.97 M109.87 51.78 C123.48 35.83, 136.87 21.15, 153.17 1.97 M120.5 51.75 C130.79 41.17, 138.99 29.31, 163.8 1.94 M120.5 51.75 C134.46 35.22, 149.63 17.3, 163.8 1.94 M131.13 51.72 C142.96 36.04, 154.9 24.9, 174.43 1.9 M131.13 51.72 C143.71 36.95, 156.12 21.87, 174.43 1.9 M141.76 51.68 C153.23 36.35, 170.12 21.03, 185.06 1.87 M141.76 51.68 C153.8 38.54, 165.41 24.66, 185.06 1.87 M152.39 51.65 C163.5 38.11, 176.69 21.98, 195.69 1.84 M152.39 51.65 C160.78 41.93, 170.98 30.85, 195.69 1.84 M162.37 52.37 C173.6 41.29, 181.08 30.36, 205.67 2.56 M162.37 52.37 C174.57 38.71, 187.29 24.77, 205.67 2.56 M173 52.33 C180.84 42.13, 192.36 30.37, 216.3 2.52 M173 52.33 C190.54 31.85, 205.98 12.98, 216.3 2.52 M183.63 52.3 C194.46 41.42, 200.27 34.13, 226.93 2.49 M183.63 52.3 C200.88 33.56, 216.85 14.65, 226.93 2.49 M194.26 52.26 C211.59 32.46, 228.98 12.77, 237.56 2.45 M194.26 52.26 C203.85 40.57, 214.35 30.37, 237.56 2.45 M204.89 52.23 C215.33 37.87, 228.17 22.99, 248.19 2.42 M204.89 52.23 C215.79 40.17, 224.49 28.63, 248.19 2.42 M215.52 52.19 C225.97 40.72, 238.14 25.65, 258.82 2.38 M215.52 52.19 C228.08 38.95, 238.45 25.96, 258.82 2.38 M226.15 52.16 C237.49 40.19, 245.81 31.07, 269.45 2.35 M226.15 52.16 C243.12 33.3, 258.79 13.95, 269.45 2.35 M236.78 52.12 C251.13 33.19, 269.61 15.95, 280.08 2.31 M236.78 52.12 C249.96 37.32, 264.36 20.61, 280.08 2.31 M247.41 52.09 C264.84 34.66, 282.49 11.48, 290.71 2.28 M247.41 52.09 C256.96 40.51, 267.85 28.59, 290.71 2.28 M258.04 52.06 C276.83 30.9, 290.7 11.89, 301.34 2.24 M258.04 52.06 C272.38 35.4, 285.67 20.24, 301.34 2.24 M268.67 52.02 C282.4 37.71, 297.47 20.49, 311.97 2.21 M268.67 52.02 C278.12 40.73, 288.61 29.16, 311.97 2.21 M279.3 51.99 C292.48 36.42, 306.92 18.86, 322.6 2.18 M279.3 51.99 C292.57 35.32, 307.29 19.78, 322.6 2.18 M289.93 51.95 C300.46 38.28, 313.64 23.14, 333.23 2.14 M289.93 51.95 C302.7 36.32, 316.5 21.77, 333.23 2.14 M300.56 51.92 C311.37 38.1, 325.91 24.77, 343.86 2.11 M300.56 51.92 C312.26 37.66, 325.33 24.21, 343.86 2.11 M311.19 51.88 C326.41 34.49, 341.72 20.76, 354.49 2.07 M311.19 51.88 C328.21 32.03, 345.19 11.97, 354.49 2.07 M321.82 51.85 C333.15 37.77, 346.93 26.57, 365.12 2.04 M321.82 51.85 C331.55 40.57, 343.26 28.71, 365.12 2.04 M332.45 51.81 C344.62 35.26, 360.53 19.57, 375.75 2 M332.45 51.81 C347.76 33.51, 362.47 16.34, 375.75 2 M343.08 51.78 C353.65 39.29, 366.98 25.9, 386.38 1.97 M343.08 51.78 C359.68 32.15, 377.02 14.05, 386.38 1.97 M353.71 51.75 C369.53 33.69, 387.69 11.17, 397.01 1.93 M353.71 51.75 C363.56 39.97, 374.7 28.16, 397.01 1.93 M364.34 51.71 C376.74 36.61, 393.03 20.13, 407.64 1.9 M364.34 51.71 C380.26 33.33, 395.95 14.33, 407.64 1.9 M374.97 51.68 C389.9 35.97, 405.54 20.35, 418.27 1.87 M374.97 51.68 C384.05 40.43, 393.66 30.65, 418.27 1.87 M385.6 51.64 C402.5 33.7, 417.82 11.31, 428.9 1.83 M385.6 51.64 C394.73 41.94, 403.2 30.22, 428.9 1.83 M395.57 52.36 C405.92 39.16, 416.59 27.93, 438.87 2.55 M395.57 52.36 C405.78 38.14, 417.45 26.34, 438.87 2.55 M406.2 52.33 C422.69 32.75, 439.04 15.3, 449.5 2.52 M406.2 52.33 C422.52 33.82, 438.26 15.11, 449.5 2.52 M416.83 52.29 C426.34 38.7, 439.7 25.28, 460.13 2.48 M416.83 52.29 C426.88 39.61, 438.18 25.09, 460.13 2.48 M427.46 52.26 C441.92 37.77, 453.45 22.47, 470.76 2.45 M427.46 52.26 C439.25 38.91, 452.16 25.89, 470.76 2.45 M438.09 52.22 C454.77 34.32, 471.93 13.16, 481.39 2.41 M438.09 52.22 C452.58 35.67, 464.63 22.24, 481.39 2.41 M448.72 52.19 C462.84 38.84, 473.76 22.89, 492.02 2.38 M448.72 52.19 C466.22 31.66, 481.92 12.81, 492.02 2.38 M459.35 52.16 C470.73 35.84, 484.74 22.52, 502.65 2.34 M459.35 52.16 C476.37 32.54, 492.31 12.64, 502.65 2.34 M469.98 52.12 C480.32 41.83, 489.82 31.03, 513.28 2.31 M469.98 52.12 C487.24 33.58, 503.1 14.55, 513.28 2.31 M480.61 52.09 C496.17 32.97, 510.03 17.45, 523.91 2.28 M480.61 52.09 C495.5 34.69, 508.67 18.42, 523.91 2.28 M491.24 52.05 C508.54 34.76, 526.04 13.26, 534.54 2.24 M491.24 52.05 C504.78 34.91, 520.25 19.29, 534.54 2.24 M501.87 52.02 C515.69 34.52, 532.13 19.19, 545.17 2.21 M501.87 52.02 C512.13 40.54, 521.93 29.84, 545.17 2.21 M512.5 51.98 C528.26 36.42, 540.33 17.17, 555.8 2.17 M512.5 51.98 C525.83 38.08, 537.11 24.97, 555.8 2.17 M523.13 51.95 C535.96 35.71, 550.18 20.57, 566.43 2.14 M523.13 51.95 C532.86 42.77, 541.55 32.56, 566.43 2.14 M533.76 51.91 C543.24 40.06, 553.5 28.58, 577.06 2.1 M533.76 51.91 C550.71 33.36, 565.76 13.99, 577.06 2.1 M544.39 51.88 C555.63 36.31, 566.38 25.09, 587.69 2.07 M544.39 51.88 C557.86 37.38, 571.09 21.6, 587.69 2.07 M555.02 51.84 C571.1 31, 586.43 14.08, 598.32 2.03 M555.02 51.84 C565.92 39.72, 577.8 24.98, 598.32 2.03 M565.65 51.81 C573.77 41.36, 583.42 32.69, 608.95 2 M565.65 51.81 C580.08 35.17, 595.07 17.89, 608.95 2 M576.28 51.78 C586.18 40.74, 595.37 25.88, 619.58 1.96 M576.28 51.78 C588.31 38.05, 600.16 25.24, 619.58 1.96 M586.91 51.74 C602.73 33.37, 617.68 14.95, 630.21 1.93 M586.91 51.74 C598.73 37.41, 611.4 22.97, 630.21 1.93 M597.54 51.71 C611.98 32.77, 627.24 15.04, 640.84 1.9 M597.54 51.71 C610.88 36.54, 623.31 20.86, 640.84 1.9 M608.17 51.67 C621.67 35.12, 637.77 14.71, 651.47 1.86 M608.17 51.67 C620.09 37.15, 632.62 23.26, 651.47 1.86 M618.8 51.64 C633.72 30.15, 653.32 11.67, 662.1 1.83 M618.8 51.64 C631 36.59, 645.05 21.79, 662.1 1.83 M628.78 52.36 C641.67 35.69, 657.98 19.42, 672.08 2.55 M628.78 52.36 C645.38 33.75, 660.67 15.64, 672.08 2.55 M639.41 52.32 C654.51 35.12, 669.63 19.77, 682.71 2.51 M639.41 52.32 C653.55 34.06, 670.03 16.06, 682.71 2.51 M650.04 52.29 C659.91 41.35, 669.4 32.76, 693.34 2.48 M650.04 52.29 C661.9 39.09, 671.12 28.49, 693.34 2.48 M660.67 52.25 C671.4 40.58, 684.09 27.62, 703.97 2.44 M660.67 52.25 C669.38 40.57, 680.57 30.02, 703.97 2.44 M671.3 52.22 C683.52 37.9, 698.2 22.18, 714.6 2.41 M671.3 52.22 C683.22 37.89, 694.93 23.32, 714.6 2.41 M681.93 52.19 C693.72 42.31, 702.45 29.07, 725.23 2.37 M681.93 52.19 C692.86 39.73, 703.17 27.72, 725.23 2.37 M692.56 52.15 C706.12 37.75, 714.4 24.76, 735.86 2.34 M692.56 52.15 C703.99 38.88, 715.01 26.63, 735.86 2.34 M703.19 52.12 C718.46 34.83, 732.03 18.3, 746.49 2.31 M703.19 52.12 C720.07 32.72, 735.7 15.34, 746.49 2.31 M713.82 52.08 C727.88 35.76, 744.36 18.27, 757.12 2.27 M713.82 52.08 C724.79 38.15, 736.05 26.42, 757.12 2.27 M724.45 52.05 C736.48 39.48, 750.3 22.94, 767.75 2.24 M724.45 52.05 C740.89 34.92, 755.85 16.76, 767.75 2.24 M735.08 52.01 C747.46 36.19, 762.98 18.92, 778.38 2.2 M735.08 52.01 C751.62 31.78, 768.96 11.85, 778.38 2.2 M745.71 51.98 C764.66 32.08, 780.61 12.8, 789.01 2.17 M745.71 51.98 C761.9 32.4, 778.35 13.35, 789.01 2.17 M756.34 51.94 C772.43 31.69, 791.16 15.56, 799.64 2.13 M756.34 51.94 C768.76 39.09, 780.14 25.27, 799.64 2.13 M766.97 51.91 C784.1 32.37, 798.15 14.17, 810.27 2.1 M766.97 51.91 C784.52 32.33, 800.74 13.03, 810.27 2.1 M777.6 51.87 C786.84 39.47, 796.37 26.64, 820.9 2.06 M777.6 51.87 C790.56 38.39, 803.53 23.33, 820.9 2.06 M788.23 51.84 C798.56 40.22, 807.34 29.14, 831.53 2.03 M788.23 51.84 C804.49 32.49, 821.94 13.06, 831.53 2.03 M798.86 51.81 C807.33 41.76, 816.38 29.87, 842.16 2 M798.86 51.81 C806.95 41.72, 817.2 30.38, 842.16 2 M809.49 51.77 C822.34 36.74, 834.03 23.78, 852.79 1.96 M809.49 51.77 C826.07 34.04, 840.03 15.59, 852.79 1.96 M820.12 51.74 C836.65 36.79, 849.83 18.06, 863.42 1.93 M820.12 51.74 C833.3 36.43, 847.45 19.29, 863.42 1.93 M830.75 51.7 C845.78 33.28, 860.05 17.9, 874.05 1.89 M830.75 51.7 C844.87 35.66, 857.45 18.97, 874.05 1.89 M841.38 51.67 C853.85 38.49, 866.09 23.78, 884.68 1.86 M841.38 51.67 C853.58 37.57, 865.72 22.61, 884.68 1.86 M852.01 51.63 C859.43 40.1, 868.98 28.9, 895.31 1.82 M852.01 51.63 C862.99 40.85, 871.8 27.94, 895.31 1.82 M861.98 52.35 C871.07 40.26, 881.03 30.34, 905.28 2.54 M861.98 52.35 C877.51 35.95, 892.02 17.88, 905.28 2.54 M872.61 52.32 C885.16 34.69, 903.68 17.13, 915.91 2.51 M872.61 52.32 C887.9 35.08, 903.7 17.89, 915.91 2.51 M883.24 52.28 C899.06 31.86, 916.84 13.5, 926.54 2.47 M883.24 52.28 C893.06 39.3, 903.8 27.59, 926.54 2.47 M893.87 52.25 C908.38 34.15, 921.43 21.06, 937.17 2.44 M893.87 52.25 C906.54 38.29, 917.98 26.13, 937.17 2.44 M904.5 52.22 C912.38 41.54, 924.97 30.56, 947.8 2.4 M904.5 52.22 C919.62 34.62, 936.73 14.7, 947.8 2.4 M915.13 52.18 C927.89 40.01, 940.15 25.32, 958.43 2.37 M915.13 52.18 C925.21 40.56, 935.77 28.89, 958.43 2.37 M925.76 52.15 C940.15 37.88, 954.49 21.49, 969.06 2.34 M925.76 52.15 C940.86 33.58, 957.32 14.83, 969.06 2.34 M936.39 52.11 C953 32.26, 970.5 13.67, 979.69 2.3 M936.39 52.11 C947.72 39.13, 959.73 25.11, 979.69 2.3 M947.02 52.08 C959.67 40.23, 967.38 25.98, 990.32 2.27 M947.02 52.08 C962.2 36.55, 975.96 19.49, 990.32 2.27 M957.65 52.04 C969.38 39.1, 978.8 27.56, 1000.95 2.23 M957.65 52.04 C968.57 39.3, 977.55 28.34, 1000.95 2.23 M968.28 52.01 C983.79 34.37, 998.94 16.39, 1011.58 2.2 M968.28 52.01 C978.64 39.69, 989.15 28.06, 1011.58 2.2 M978.91 51.97 C993.23 37.8, 1002.73 26.37, 1022.21 2.16 M978.91 51.97 C995.05 32.94, 1009.74 14.43, 1022.21 2.16 M989.54 51.94 C1007.83 32.32, 1021.03 12.43, 1032.84 2.13 M989.54 51.94 C1002.28 37.57, 1015.96 23.49, 1032.84 2.13 M1000.17 51.91 C1014.11 37, 1024.64 26.31, 1043.47 2.09 M1000.17 51.91 C1014.85 34.18, 1030.19 17.96, 1043.47 2.09 M1010.8 51.87 C1023.4 38.25, 1038.18 20.08, 1054.1 2.06 M1010.8 51.87 C1027.13 33.65, 1045.26 13.68, 1054.1 2.06 M1021.43 51.84 C1034.11 34.88, 1050.31 19.9, 1064.73 2.03 M1021.43 51.84 C1029.48 41.74, 1038.61 29.78, 1064.73 2.03 M1032.06 51.8 C1045.53 39.48, 1058.42 23.66, 1075.36 1.99 M1032.06 51.8 C1041.99 40.83, 1052.85 29.02, 1075.36 1.99 M1042.69 51.77 C1053.04 38.47, 1063.78 30.02, 1085.99 1.96 M1042.69 51.77 C1054.43 39.34, 1064.38 26.41, 1085.99 1.96 M1053.32 51.73 C1064.23 42.82, 1071.85 29.1, 1096.62 1.92 M1053.32 51.73 C1063.89 39.73, 1073.93 27.88, 1096.62 1.92 M1063.95 51.7 C1079.85 33.53, 1093.85 15.08, 1107.25 1.89 M1063.95 51.7 C1079.4 34.81, 1096.41 16.01, 1107.25 1.89 M1074.58 51.66 C1088.47 34.82, 1102.14 21.72, 1111.98 8.65 M1074.58 51.66 C1083.87 40.47, 1093.13 30.74, 1111.98 8.65 M1085.22 51.63 C1094.3 42.41, 1102.81 32.77, 1112.77 19.93 M1085.22 51.63 C1091.3 44.9, 1097.58 36.36, 1112.77 19.93 M1095.19 52.35 C1100.84 42.6, 1110.87 35.06, 1112.9 31.97 M1095.19 52.35 C1100.78 44.57, 1107.04 37.96, 1112.9 31.97" stroke="#868e96" stroke-width="1" fill="none" transform="translate(26.770544316956148 58.95233843033748) rotate(0 555.8342728495745 25.288012943313333)"/><path d="M12.64 0 M12.64 0 C275.53 -2.48, 539.14 -1.96, 1099.02 0 M1099.02 0 C1108.12 1.96, 1112.81 5.46, 1111.67 12.64 M1111.67 12.64 C1111.19 18.9, 1109.8 26.2, 1111.67 37.93 M1111.67 37.93 C1111.07 46.78, 1108.23 51.76, 1099.02 50.58 M1099.02 50.58 C734.58 49.09, 370.67 49.23, 12.64 50.58 M12.64 50.58 C3.3 49.43, 1.88 45.6, 0 37.93 M0 37.93 C-1.12 27.89, 1.52 21.04, 0 12.64 M0 12.64 C0.3 2.64, 2.88 1.03, 12.64 0" stroke="#343a40" stroke-width="2.5" fill="none" stroke-dasharray="1.5 8" transform="translate(26.770544316956148 58.95233843033748) rotate(0 555.8342728495745 25.288012943313333)"/></g><g><text x="0" y="18" font-family="Virgil, Segoe UI Emoji" font-size="20" fill="#343a40" text-anchor="start" direction="ltr" white-space="pre" transform="translate(24.328535302798628 10) rotate(0 45 12.5)">Keyspace</text></g><g stroke-linecap="round"><g><path d="M-0.62 0.8 C-55.29 24.01, -273.99 115.44, -328.45 138.31" stroke="#343a40" stroke-width="2.5" fill="none" stroke-dasharray="1.5 8" transform="translate(466.4924338861456 224.59838070443402) rotate(0 -164.53679033779918 69.55164111686554)"/></g><g><path d="M-305.09 117.13 C-313.33 124.15, -319.66 128.51, -330.34 138.08" stroke="#343a40" stroke-width="2.5" fill="none" stroke-dasharray="1.5 6" transform="translate(466.4924338861456 224.59838070443402) rotate(0 -164.53679033779918 69.55164111686554)"/></g><g><path d="M-297.16 136.06 C-307.33 138.06, -315.75 137.45, -330.34 138.08" stroke="#343a40" stroke-width="2.5" fill="none" stroke-dasharray="1.5 6" transform="translate(466.4924338861456 224.59838070443402) rotate(0 -164.53679033779918 69.55164111686554)"/></g></g><g stroke-linecap="round"><g><path d="M0.8 -0.49 C1.32 8.97, 2.04 46.8, 2.22 56.14" stroke="#343a40" stroke-width="2.5" fill="none" stroke-dasharray="1.5 8" transform="translate(579.2084036173255 119.42469230444112) rotate(0 1.5091612857395376 27.82649024163129)"/></g><g><path d="M-8.63 29.24 C-4.75 34.37, -3.52 39.75, 2 55.69" stroke="#343a40" stroke-width="2.5" fill="none" stroke-dasharray="1.5 6" transform="translate(579.2084036173255 119.42469230444112) rotate(0 1.5091612857395376 27.82649024163129)"/></g><g><path d="M10.4 28.86 C10.05 34.2, 7.07 39.66, 2 55.69" stroke="#343a40" stroke-width="2.5" fill="none" stroke-dasharray="1.5 6" transform="translate(579.2084036173255 119.42469230444112) rotate(0 1.5091612857395376 27.82649024163129)"/></g></g><g><text x="0" y="18" font-family="Virgil, Segoe UI Emoji" font-size="20" fill="#343a40" text-anchor="start" direction="ltr" white-space="pre" transform="translate(460.53448717287574 190.3985352495738) rotate(0 180.5 12.5)">TLC ID, entity ID, project ID, etc.</text></g><g stroke-linecap="round"><g><path d="M-0.58 0.58 C18.62 20.26, 96.57 98.09, 115.96 117.57" stroke="#343a40" stroke-width="2.5" fill="none" stroke-dasharray="1.5 8" transform="translate(574.2618190140274 227.35502035454283) rotate(0 57.68979015671903 59.07311497822275)"/></g><g><path d="M89.74 103.35 C98.67 107.76, 108.42 113.85, 115.07 118.86" stroke="#343a40" stroke-width="2.5" fill="none" stroke-dasharray="1.5 6" transform="translate(574.2618190140274 227.35502035454283) rotate(0 57.68979015671903 59.07311497822275)"/></g><g><path d="M104.27 88.86 C107.81 98.51, 112.24 109.91, 115.07 118.86" stroke="#343a40" stroke-width="2.5" fill="none" stroke-dasharray="1.5 6" transform="translate(574.2618190140274 227.35502035454283) rotate(0 57.68979015671903 59.07311497822275)"/></g></g><g stroke-linecap="round"><path d="M7.86 8.16 C7.86 8.16, 7.86 8.16, 7.86 8.16 M7.86 8.16 C7.86 8.16, 7.86 8.16, 7.86 8.16 M2.75 26.24 C8.57 20.16, 13.41 13.24, 21.12 5.11 M2.75 26.24 C6.27 21.82, 9.93 16.42, 21.12 5.11 M2.88 38.28 C14.19 27.08, 27.17 12.85, 34.37 2.05 M2.88 38.28 C14.71 25.58, 26.7 11.25, 34.37 2.05 M2.36 51.07 C13.61 41.96, 23.14 28.5, 45 2.02 M2.36 51.07 C13.81 37.51, 24.28 25.99, 45 2.02 M2.49 63.11 C15.72 47.56, 28 34.72, 55.63 1.98 M2.49 63.11 C22.06 40.28, 43.4 16.02, 55.63 1.98 M2.62 75.16 C23.91 49.94, 46.91 25.85, 66.26 1.95 M2.62 75.16 C17.72 59.94, 31 42.43, 66.26 1.95 M2.76 87.2 C23.46 65.54, 44.5 38.74, 76.23 2.67 M2.76 87.2 C20.79 67.64, 38.01 46.41, 76.23 2.67 M2.89 99.24 C24.01 73.8, 46.62 51.28, 86.86 2.63 M2.89 99.24 C32.99 63.15, 64.5 28.27, 86.86 2.63 M2.37 112.03 C26.28 86.11, 46.4 61.86, 97.49 2.6 M2.37 112.03 C37.33 69.41, 74.1 28.75, 97.49 2.6 M2.5 124.07 C33.16 91.74, 62.4 57.65, 108.12 2.57 M2.5 124.07 C27.51 96.35, 50.67 69.07, 108.12 2.57 M2.63 136.11 C32.31 102.26, 63.53 64.24, 120.07 1.02 M2.63 136.11 C43.68 89.21, 83.24 41.06, 120.07 1.02 M2.77 148.16 C42.55 101.47, 79.44 56.68, 128.07 4.01 M2.77 148.16 C37.34 109.35, 71.41 69.14, 128.07 4.01 M2.9 160.2 C33.3 125.78, 61.55 92.67, 135.42 7.75 M2.9 160.2 C41.49 115.91, 81.12 71.68, 135.42 7.75 M2.38 172.99 C42.65 127.97, 81.08 80.95, 140.8 13.75 M2.38 172.99 C38.6 131.46, 74.05 91.31, 140.8 13.75 M2.51 185.03 C36.31 146.38, 73.01 107.84, 143.56 22.77 M2.51 185.03 C39.82 142.13, 76.91 99.05, 143.56 22.77 M2.64 197.07 C49.18 140.63, 98.24 84.05, 148.94 28.77 M2.64 197.07 C39.49 154.51, 78 109.42, 148.94 28.77 M2.78 209.11 C44.09 158.64, 91.4 108.71, 148.42 41.57 M2.78 209.11 C49.99 157.36, 95.56 103.58, 148.42 41.57 M2.91 221.16 C37.07 184.77, 66.45 147.72, 148.55 53.61 M2.91 221.16 C39.61 180.41, 73.96 139.49, 148.55 53.61 M2.39 233.95 C37.47 191.5, 73.52 151.08, 148.69 65.65 M2.39 233.95 C37.89 194.44, 72.55 153.97, 148.69 65.65 M2.52 245.99 C46.11 197.16, 91.99 143.44, 148.82 77.69 M2.52 245.99 C49.07 192.98, 94.6 138.76, 148.82 77.69 M2.65 258.03 C35.26 222.29, 67.09 182.41, 148.95 89.73 M2.65 258.03 C59.08 192.07, 115.71 127.04, 148.95 89.73 M2.79 270.07 C63.17 205.42, 118.59 138.1, 149.09 101.77 M2.79 270.07 C39.03 227.48, 75.91 186.81, 149.09 101.77 M2.92 282.11 C57.15 218.48, 114.76 156.32, 148.56 114.57 M2.92 282.11 C40.9 238.26, 78.98 194.29, 148.56 114.57 M2.4 294.91 C43.6 247.58, 87.86 197.46, 148.7 126.61 M2.4 294.91 C55.77 231.09, 109.91 169.74, 148.7 126.61 M2.53 306.95 C30.73 270.96, 63.7 237.17, 148.83 138.65 M2.53 306.95 C52.59 246.31, 104.91 187.09, 148.83 138.65 M2.66 318.99 C36.3 280.68, 67.83 242.49, 148.96 150.69 M2.66 318.99 C40.01 276.71, 78.22 232.69, 148.96 150.69 M2.79 331.03 C34.02 295.72, 64.82 263.01, 149.1 162.73 M2.79 331.03 C39.91 285.52, 77.89 241.98, 149.1 162.73 M2.93 343.07 C36.75 305.25, 69.07 264.04, 148.57 175.53 M2.93 343.07 C41.28 297.77, 80.65 253.55, 148.57 175.53 M2.4 355.87 C60.15 289.12, 113.69 226.34, 148.71 187.57 M2.4 355.87 C32.48 321.54, 61.47 288.35, 148.71 187.57 M2.54 367.91 C56.36 302.43, 113.86 239.74, 148.84 199.61 M2.54 367.91 C59.76 301.01, 117.04 234.67, 148.84 199.61 M2.67 379.95 C56.65 318.89, 110.02 256.63, 148.97 211.65 M2.67 379.95 C43.97 332.83, 84.83 285.41, 148.97 211.65 M2.8 391.99 C53.53 332.22, 102.91 276.62, 149.11 223.69 M2.8 391.99 C61.78 326.85, 119.02 260.55, 149.11 223.69 M2.94 404.03 C50.66 351.69, 97.6 296.09, 149.24 235.73 M2.94 404.03 C36.63 366, 70.45 326.09, 149.24 235.73 M2.41 416.83 C35.44 378.47, 67.61 340.95, 148.72 248.53 M2.41 416.83 C44.86 368.21, 86.54 321.83, 148.72 248.53 M3.2 428.11 C33.14 393.11, 63.2 361.08, 148.85 260.57 M3.2 428.11 C44.87 379.16, 85.87 332.56, 148.85 260.57 M5.31 437.89 C50.67 383.83, 96.49 331.62, 148.98 272.61 M5.31 437.89 C39.28 398.09, 73.33 359.7, 148.98 272.61 M10.69 443.89 C51.69 396.69, 94.03 351.69, 149.12 284.65 M10.69 443.89 C49.54 398.89, 88.32 355.88, 149.12 284.65 M17.38 448.39 C68.92 390.37, 118.21 333.01, 149.25 296.69 M17.38 448.39 C54.33 405, 93.54 361.46, 149.25 296.69 M26.04 450.62 C63.85 408.12, 98.9 367.69, 149.38 308.73 M26.04 450.62 C72.37 398.5, 117.24 347.57, 149.38 308.73 M36.67 450.58 C71.03 408.93, 109.14 367.99, 148.86 321.53 M36.67 450.58 C62.33 420.92, 87.42 390.37, 148.86 321.53 M47.3 450.55 C72.31 421.41, 96.02 396.41, 148.99 333.57 M47.3 450.55 C77.85 414.49, 109.39 380.49, 148.99 333.57 M57.93 450.51 C88.32 413.39, 122.53 375.64, 149.12 345.61 M57.93 450.51 C86.13 418.47, 112.35 388.11, 149.12 345.61 M68.56 450.48 C95.68 421.61, 122.76 387.52, 149.26 357.65 M68.56 450.48 C96.38 419.62, 123.39 387.02, 149.26 357.65 M79.19 450.45 C93.36 435.24, 108 416.26, 149.39 369.69 M79.19 450.45 C101.75 425.37, 123.08 399.7, 149.39 369.69 M89.82 450.41 C110.85 424.9, 130.5 405.3, 148.87 382.49 M89.82 450.41 C111.81 425.2, 133.58 400.91, 148.87 382.49 M100.45 450.38 C116.83 434.5, 129.01 415.18, 149 394.53 M100.45 450.38 C116.11 431.01, 132.08 412.63, 149 394.53 M111.08 450.34 C118.28 441.51, 127.34 430.4, 149.13 406.57 M111.08 450.34 C124.26 435.11, 138.94 419.65, 149.13 406.57 M121.06 451.06 C126.61 441.81, 134.42 436.93, 147.3 420.87 M121.06 451.06 C130.55 439.63, 140.36 428.03, 147.3 420.87" stroke="#be4bdb" stroke-width="1" fill="none" transform="translate(203.54120687854265 372.8016749737071) rotate(0 71.9952004283432 224.9258754921807)"/><path d="M32 0 M32 0 C58.22 -0.7, 82.94 -0.2, 111.99 0 M111.99 0 C133.29 0.86, 143.76 9.5, 143.99 32 M143.99 32 C145.63 153.42, 146.17 272.17, 143.99 417.85 M143.99 417.85 C142.16 440.71, 135.26 450.08, 111.99 449.85 M111.99 449.85 C82.07 450.14, 48.48 449.27, 32 449.85 M32 449.85 C11.6 450.93, -0.08 438.73, 0 417.85 M0 417.85 C-0.21 292.89, 0.17 166.02, 0 32 M0 32 C-0.25 10.14, 10.83 0.85, 32 0" stroke="#862e9c" stroke-width="2.5" fill="none" stroke-dasharray="1.5 8" transform="translate(203.54120687854265 372.8016749737071) rotate(0 71.9952004283432 224.9258754921807)"/></g><g stroke-linecap="round"><path d="M7.86 8.16 C7.86 8.16, 7.86 8.16, 7.86 8.16 M7.86 8.16 C7.86 8.16, 7.86 8.16, 7.86 8.16 M2.75 26.24 C11.66 16.64, 17.69 8.92, 21.12 5.11 M2.75 26.24 C9.5 19.28, 14.24 11.52, 21.12 5.11 M2.88 38.28 C9.81 27.91, 18 20.8, 34.37 2.05 M2.88 38.28 C11.43 27.9, 18.37 19.38, 34.37 2.05 M2.36 51.07 C17.73 32.88, 30.03 16.96, 45 2.02 M2.36 51.07 C13.33 39.66, 23.36 28.29, 45 2.02 M2.49 63.11 C15.39 48.55, 27.72 31.71, 55.63 1.98 M2.49 63.11 C15.87 47.17, 31.83 30.79, 55.63 1.98 M2.62 75.16 C24.46 51.63, 46.49 23.38, 66.26 1.95 M2.62 75.16 C19.95 55.27, 37.18 33.33, 66.26 1.95 M2.76 87.2 C22.59 62.95, 45.35 37.5, 76.23 2.67 M2.76 87.2 C29.97 55.02, 57.27 25.65, 76.23 2.67 M2.89 99.24 C20.01 75.33, 41.57 54.93, 86.86 2.63 M2.89 99.24 C34.46 61.73, 67.56 24.21, 86.86 2.63 M2.37 112.03 C25.54 83.98, 49.84 56.87, 97.49 2.6 M2.37 112.03 C20.7 90.52, 40.91 67.06, 97.49 2.6 M2.5 124.07 C25.96 99.11, 48 74.66, 108.12 2.57 M2.5 124.07 C26.11 95.14, 51.14 65.62, 108.12 2.57 M2.63 136.11 C49.3 84.03, 94.66 27.26, 120.07 1.02 M2.63 136.11 C42.17 92.95, 78.78 48.97, 120.07 1.02 M2.77 148.16 C45.43 98.75, 86.4 52.33, 128.07 4.01 M2.77 148.16 C39.58 106.24, 76.34 65.58, 128.07 4.01 M2.9 160.2 C42.19 113.98, 78.51 73.74, 135.42 7.75 M2.9 160.2 C32.43 129.17, 59.53 97.18, 135.42 7.75 M2.38 172.99 C30.9 138.23, 59.84 102.2, 140.8 13.75 M2.38 172.99 C48.22 117.86, 96.25 61.62, 140.8 13.75 M2.51 185.03 C44.51 133.98, 87.27 85.85, 143.56 22.77 M2.51 185.03 C35.06 148.85, 67.64 111.12, 143.56 22.77 M2.64 197.07 C51.72 139.77, 98.87 84.34, 148.94 28.77 M2.64 197.07 C34.72 160.07, 65.8 124.71, 148.94 28.77 M2.78 209.11 C52.71 148.12, 103.83 91.76, 148.42 41.57 M2.78 209.11 C48.44 154.25, 94.93 101.84, 148.42 41.57 M2.91 221.16 C47.2 169.86, 94.59 118.69, 148.55 53.61 M2.91 221.16 C32.22 184.84, 63.77 148.33, 148.55 53.61 M2.39 233.95 C49.06 183.29, 94.49 130.81, 148.69 65.65 M2.39 233.95 C43.15 189.66, 81.32 144.8, 148.69 65.65 M2.52 245.99 C36.29 206.72, 68.84 169.07, 148.82 77.69 M2.52 245.99 C47.73 194.51, 91.7 143.97, 148.82 77.69 M2.65 258.03 C60.39 192.79, 117.14 128.56, 148.95 89.73 M2.65 258.03 C40.61 217.23, 76.65 176.33, 148.95 89.73 M2.79 270.07 C55.22 211.26, 105.96 150.94, 149.09 101.77 M2.79 270.07 C50.07 214.69, 98.61 159.63, 149.09 101.77 M2.92 282.11 C33.33 247.11, 62.81 210.34, 148.56 114.57 M2.92 282.11 C45.55 234.49, 86.8 186.44, 148.56 114.57 M2.4 294.91 C56.01 233.46, 111.08 168.7, 148.7 126.61 M2.4 294.91 C57.23 229.31, 112.86 166.57, 148.7 126.61 M2.53 306.95 C44 261.16, 86.07 212.53, 148.83 138.65 M2.53 306.95 C58.56 241.61, 115.69 174.75, 148.83 138.65 M2.66 318.99 C54.33 259.93, 109.55 199.06, 148.96 150.69 M2.66 318.99 C40.05 278.58, 77.14 237.09, 148.96 150.69 M2.79 331.03 C51.49 274.15, 101.65 218.9, 149.1 162.73 M2.79 331.03 C35.35 292.96, 68.67 254.61, 149.1 162.73 M2.93 343.07 C34.76 305.34, 68.56 270.02, 148.57 175.53 M2.93 343.07 C52.63 286.28, 103.62 227.33, 148.57 175.53 M2.4 355.87 C32.95 319.94, 63.03 284.8, 148.71 187.57 M2.4 355.87 C34.59 317.91, 66.61 281.34, 148.71 187.57 M2.54 367.91 C38.48 324.96, 72.64 284.97, 148.84 199.61 M2.54 367.91 C32.22 333.58, 62.36 298.79, 148.84 199.61 M2.67 379.95 C54.13 323.66, 101.89 264.17, 148.97 211.65 M2.67 379.95 C43.57 334.37, 83.89 287.41, 148.97 211.65 M2.8 391.99 C55.3 332.77, 108.28 270.65, 149.11 223.69 M2.8 391.99 C57.76 329.12, 112.17 266.04, 149.11 223.69 M2.94 404.03 C46.3 355.39, 89.22 305.19, 149.24 235.73 M2.94 404.03 C42.94 359.93, 81.27 314.35, 149.24 235.73 M2.41 416.83 C41.76 374.45, 80.98 328.2, 148.72 248.53 M2.41 416.83 C47.88 363.65, 93.57 310.87, 148.72 248.53 M3.2 428.11 C37.14 391.58, 68.29 356, 148.85 260.57 M3.2 428.11 C49.49 374.22, 97.57 318.02, 148.85 260.57 M5.31 437.89 C49.11 388.66, 93.94 337.77, 148.98 272.61 M5.31 437.89 C51.16 386.68, 95.11 334.46, 148.98 272.61 M10.69 443.89 C63.07 381.05, 115.63 320.89, 149.12 284.65 M10.69 443.89 C59.46 388.59, 107.72 331.25, 149.12 284.65 M17.38 448.39 C71.04 390.27, 123.08 328.61, 149.25 296.69 M17.38 448.39 C66.47 393.09, 113.64 338.82, 149.25 296.69 M26.04 450.62 C56.46 414.96, 90.69 376.23, 149.38 308.73 M26.04 450.62 C66.15 402.72, 105.94 358.33, 149.38 308.73 M36.67 450.58 C68.53 412.17, 99.36 376.25, 148.86 321.53 M36.67 450.58 C68.09 413.19, 98.9 378.4, 148.86 321.53 M47.3 450.55 C71.15 421.48, 96.07 394.37, 148.99 333.57 M47.3 450.55 C84.57 409.11, 122.62 365.62, 148.99 333.57 M57.93 450.51 C88.01 418.02, 117.04 384.03, 149.12 345.61 M57.93 450.51 C92.88 407.69, 130.2 366.46, 149.12 345.61 M68.56 450.48 C93.41 420.86, 116.77 394.81, 149.26 357.65 M68.56 450.48 C92.51 422.67, 118.06 395.44, 149.26 357.65 M79.19 450.45 C100.63 429.04, 117.63 403.33, 149.39 369.69 M79.19 450.45 C98.67 429.71, 119.02 406.44, 149.39 369.69 M89.82 450.41 C111.01 424.83, 132.69 400.19, 148.87 382.49 M89.82 450.41 C106.56 431.48, 122.36 413.08, 148.87 382.49 M100.45 450.38 C115.97 433.61, 129.24 419.48, 149 394.53 M100.45 450.38 C119.62 431.19, 136.87 410.59, 149 394.53 M111.08 450.34 C122.55 436.31, 133.33 424.16, 149.13 406.57 M111.08 450.34 C124.83 435.02, 137.88 419.43, 149.13 406.57 M121.06 451.06 C129.99 439.99, 139.7 430.69, 147.3 420.87 M121.06 451.06 C131.84 440.25, 141.57 428.08, 147.3 420.87" stroke="#4c6ef5" stroke-width="1" fill="none" transform="translate(392.1415010463825 371.97614428824545) rotate(0 71.9952004283432 224.9258754921807)"/><path d="M32 0 M32 0 C59.82 0.37, 89.49 2.15, 111.99 0 M111.99 0 C133.86 1.09, 144.16 9.65, 143.99 32 M143.99 32 C141.25 121.58, 141.76 211.28, 143.99 417.85 M143.99 417.85 C142.25 439.44, 135.13 449.4, 111.99 449.85 M111.99 449.85 C87.46 450.73, 65.61 451.39, 32 449.85 M32 449.85 C12.27 448.93, -1.48 439.02, 0 417.85 M0 417.85 C1.16 312.47, 0.52 205.36, 0 32 M0 32 C0.15 10.6, 11.28 1.77, 32 0" stroke="#364fc7" stroke-width="2.5" fill="none" stroke-dasharray="1.5 8" transform="translate(392.1415010463825 371.97614428824545) rotate(0 71.9952004283432 224.9258754921807)"/></g><g stroke-linecap="round"><path d="M7.86 8.16 C7.86 8.16, 7.86 8.16, 7.86 8.16 M7.86 8.16 C7.86 8.16, 7.86 8.16, 7.86 8.16 M2.75 26.24 C7.41 21.41, 12.75 15.44, 21.12 5.11 M2.75 26.24 C7.33 22.35, 11.87 16.38, 21.12 5.11 M2.88 38.28 C13.35 27.91, 22.54 14.95, 34.37 2.05 M2.88 38.28 C13.89 24.9, 24.86 12.53, 34.37 2.05 M2.36 51.07 C20.43 34.26, 32.98 13.97, 45 2.02 M2.36 51.07 C19.51 32.63, 37.19 12.52, 45 2.02 M2.49 63.11 C20.85 43.65, 36.42 23.66, 55.63 1.98 M2.49 63.11 C17.03 45.63, 31.14 29.81, 55.63 1.98 M2.62 75.16 C16.9 57.19, 30.62 39.37, 66.26 1.95 M2.62 75.16 C22.05 51.98, 42.65 29.5, 66.26 1.95 M2.76 87.2 C21.42 67.69, 37.24 45.57, 76.23 2.67 M2.76 87.2 C22.52 66.7, 39.34 45.97, 76.23 2.67 M2.89 99.24 C23.39 74.93, 40.13 52.34, 86.86 2.63 M2.89 99.24 C31.43 67.08, 57.61 35.41, 86.86 2.63 M2.37 112.03 C27.52 80.45, 54.71 52.89, 97.49 2.6 M2.37 112.03 C27.4 83.57, 50.58 57.14, 97.49 2.6 M2.5 124.07 C31.24 90.17, 64.26 54.88, 108.12 2.57 M2.5 124.07 C33.61 89.81, 65.42 52.91, 108.12 2.57 M2.63 136.11 C45.35 86.46, 88.87 34.97, 120.07 1.02 M2.63 136.11 C38.41 97.09, 72.57 56.93, 120.07 1.02 M2.77 148.16 C34.2 108.52, 70.01 68.13, 128.07 4.01 M2.77 148.16 C50.38 94.77, 98.91 39.43, 128.07 4.01 M2.9 160.2 C51.85 102.82, 103.06 43.9, 135.42 7.75 M2.9 160.2 C37.23 119.53, 71.82 80.17, 135.42 7.75 M2.38 172.99 C50.16 120.44, 95.47 67.06, 140.8 13.75 M2.38 172.99 C35.16 135.17, 69.19 95.86, 140.8 13.75 M2.51 185.03 C57.6 118.8, 115.82 54.08, 143.56 22.77 M2.51 185.03 C43.86 136.49, 84.11 88.7, 143.56 22.77 M2.64 197.07 C54.97 136.52, 109.68 76.56, 148.94 28.77 M2.64 197.07 C40.25 149.95, 80.61 103.75, 148.94 28.77 M2.78 209.11 C36.6 168.8, 72.08 132.11, 148.42 41.57 M2.78 209.11 C56.46 148.32, 111.12 87.37, 148.42 41.57 M2.91 221.16 C52.97 162.09, 103.77 104.42, 148.55 53.61 M2.91 221.16 C53.08 164.42, 102.06 108.43, 148.55 53.61 M2.39 233.95 C47.29 181.41, 92.42 130.8, 148.69 65.65 M2.39 233.95 C53.3 173, 106.69 113.18, 148.69 65.65 M2.52 245.99 C38.11 206.03, 72.35 165.45, 148.82 77.69 M2.52 245.99 C40.88 203.69, 76.97 161.24, 148.82 77.69 M2.65 258.03 C56.58 197.76, 107.3 135.59, 148.95 89.73 M2.65 258.03 C54.02 198.98, 105.04 140.31, 148.95 89.73 M2.79 270.07 C35.31 231.54, 71.81 189.26, 149.09 101.77 M2.79 270.07 C45.29 221.03, 89.1 171.37, 149.09 101.77 M2.92 282.11 C50.82 224.41, 102.74 167.02, 148.56 114.57 M2.92 282.11 C49.61 226.91, 97.85 171.16, 148.56 114.57 M2.4 294.91 C47.7 241.42, 95.82 187.44, 148.7 126.61 M2.4 294.91 C45.6 246.1, 89.61 195.61, 148.7 126.61 M2.53 306.95 C49.94 251.45, 101.56 195.69, 148.83 138.65 M2.53 306.95 C46.53 255.15, 90.99 203.39, 148.83 138.65 M2.66 318.99 C51.78 264.47, 101.28 207.32, 148.96 150.69 M2.66 318.99 C53.18 259.41, 104.84 201.47, 148.96 150.69 M2.79 331.03 C34.92 293.33, 69.04 256.63, 149.1 162.73 M2.79 331.03 C58.12 268.32, 113.87 203.81, 149.1 162.73 M2.93 343.07 C45.82 292.88, 86.78 242.87, 148.57 175.53 M2.93 343.07 C45.36 292.35, 90.13 241.04, 148.57 175.53 M2.4 355.87 C32.76 320.72, 66.37 284.05, 148.71 187.57 M2.4 355.87 C40.69 312.17, 79.34 266.68, 148.71 187.57 M2.54 367.91 C42.54 319.05, 85.48 273.5, 148.84 199.61 M2.54 367.91 C41.41 323.86, 78.3 279.55, 148.84 199.61 M2.67 379.95 C55.24 320.57, 104.79 260.39, 148.97 211.65 M2.67 379.95 C61.46 313.2, 118.37 245.98, 148.97 211.65 M2.8 391.99 C52.3 334.92, 100.63 278.99, 149.11 223.69 M2.8 391.99 C44.36 341.67, 89.3 292.15, 149.11 223.69 M2.94 404.03 C54.19 344.88, 107.14 285.01, 149.24 235.73 M2.94 404.03 C60.27 335.77, 117.37 269.88, 149.24 235.73 M2.41 416.83 C55.34 353.98, 110.01 289.88, 148.72 248.53 M2.41 416.83 C50.76 362.4, 98.09 308.93, 148.72 248.53 M3.2 428.11 C61.25 364.22, 118.73 296.43, 148.85 260.57 M3.2 428.11 C32.75 394.62, 63.83 361.4, 148.85 260.57 M5.31 437.89 C44.11 392.09, 83.21 346.55, 148.98 272.61 M5.31 437.89 C38.18 399.68, 71.36 361.14, 148.98 272.61 M10.69 443.89 C58.53 391.07, 105.23 335.83, 149.12 284.65 M10.69 443.89 C59.87 387.04, 112.5 327.85, 149.12 284.65 M17.38 448.39 C70.91 387.99, 121.21 327.27, 149.25 296.69 M17.38 448.39 C62.18 396.04, 108.22 343.04, 149.25 296.69 M26.04 450.62 C61.23 407.36, 98.82 365.17, 149.38 308.73 M26.04 450.62 C67.72 403.69, 110.05 355.1, 149.38 308.73 M36.67 450.58 C61.23 417.7, 89.64 387.52, 148.86 321.53 M36.67 450.58 C78.36 401.21, 119.56 352.62, 148.86 321.53 M47.3 450.55 C75.58 417.37, 102.38 386.79, 148.99 333.57 M47.3 450.55 C86.38 405.74, 126.77 359.3, 148.99 333.57 M57.93 450.51 C92.83 406.59, 129.84 365.84, 149.12 345.61 M57.93 450.51 C82.68 422.28, 105.67 394.87, 149.12 345.61 M68.56 450.48 C92.92 423.55, 115.76 396.62, 149.26 357.65 M68.56 450.48 C90.97 424.19, 114.57 398.51, 149.26 357.65 M79.19 450.45 C92.25 433.94, 109.99 416.09, 149.39 369.69 M79.19 450.45 C103.47 424.71, 126.19 397.9, 149.39 369.69 M89.82 450.41 C108.23 429.31, 127.47 408.29, 148.87 382.49 M89.82 450.41 C114.41 423.64, 135.92 397.59, 148.87 382.49 M100.45 450.38 C114.72 434.94, 130.37 415.37, 149 394.53 M100.45 450.38 C116.79 431.55, 133.46 412.51, 149 394.53 M111.08 450.34 C122.76 438.16, 133.31 425.62, 149.13 406.57 M111.08 450.34 C119.82 441, 126.86 432.17, 149.13 406.57 M121.06 451.06 C126.49 441.87, 136.66 435.69, 147.3 420.87 M121.06 451.06 C126.3 444.88, 132.15 438.13, 147.3 420.87" stroke="#228be6" stroke-width="1" fill="none" transform="translate(592.434768024581 368.61301270557215) rotate(0 71.9952004283432 224.9258754921807)"/><path d="M32 0 M32 0 C55.54 -0.01, 76.02 0.06, 111.99 0 M111.99 0 C131.97 0.58, 142.52 11.53, 143.99 32 M143.99 32 C144.25 123.93, 142.84 216.39, 143.99 417.85 M143.99 417.85 C144.55 440.85, 132.98 451.04, 111.99 449.85 M111.99 449.85 C84.01 449.12, 51.27 448.53, 32 449.85 M32 449.85 C9.89 450.52, -1.67 440.93, 0 417.85 M0 417.85 C-0.88 331.82, 0.17 247.01, 0 32 M0 32 C-0.05 11.67, 11.4 -0.02, 32 0" stroke="#1864ab" stroke-width="2.5" fill="none" stroke-dasharray="1.5 8" transform="translate(592.434768024581 368.61301270557215) rotate(0 71.9952004283432 224.9258754921807)"/></g><g stroke-linecap="round"><path d="M7.86 8.16 C7.86 8.16, 7.86 8.16, 7.86 8.16 M7.86 8.16 C7.86 8.16, 7.86 8.16, 7.86 8.16 M2.75 26.24 C10.03 19.62, 16.15 7.99, 21.12 5.11 M2.75 26.24 C9.59 20.17, 14.34 12.84, 21.12 5.11 M2.88 38.28 C14.92 25.21, 24.41 15, 34.37 2.05 M2.88 38.28 C11.49 27.49, 21.06 18.11, 34.37 2.05 M2.36 51.07 C16.28 34.94, 26.75 24.62, 45 2.02 M2.36 51.07 C12.42 41.35, 20.77 30.85, 45 2.02 M2.49 63.11 C13.19 50.33, 23.45 35.42, 55.63 1.98 M2.49 63.11 C19.43 42.46, 38.08 19.88, 55.63 1.98 M2.62 75.16 C21.29 51.08, 40.18 30.55, 66.26 1.95 M2.62 75.16 C16.83 58.9, 31.68 41.55, 66.26 1.95 M2.76 87.2 C28.21 57.65, 51.09 29.95, 76.23 2.67 M2.76 87.2 C18.89 68.12, 34.67 50.42, 76.23 2.67 M2.89 99.24 C30.82 63.03, 60.4 31.84, 86.86 2.63 M2.89 99.24 C29.36 67.04, 56.39 37.2, 86.86 2.63 M2.37 112.03 C30.81 78.11, 63.19 44.73, 97.49 2.6 M2.37 112.03 C21 88.49, 41.78 64.33, 97.49 2.6 M2.5 124.07 C36.75 87.75, 69.61 49.7, 108.12 2.57 M2.5 124.07 C32.33 92.31, 59.45 60.02, 108.12 2.57 M2.63 136.11 C29.98 104.25, 55.64 74.49, 120.07 1.02 M2.63 136.11 C39.21 94.63, 74.54 54.03, 120.07 1.02 M2.77 148.16 C52.11 92.31, 100.53 37.84, 128.07 4.01 M2.77 148.16 C35.62 113.3, 66.41 78.55, 128.07 4.01 M2.9 160.2 C50.4 106.96, 96.22 52.21, 135.42 7.75 M2.9 160.2 C45.63 110.03, 89.66 60.18, 135.42 7.75 M2.38 172.99 C31.25 139.76, 59.2 104.69, 140.8 13.75 M2.38 172.99 C42.94 127.76, 82.07 82.13, 140.8 13.75 M2.51 185.03 C54.13 125.86, 107.24 63.35, 143.56 22.77 M2.51 185.03 C55.36 121.74, 108.99 61.3, 143.56 22.77 M2.64 197.07 C44.11 151.29, 86.18 102.65, 148.94 28.77 M2.64 197.07 C58.67 131.73, 115.8 64.87, 148.94 28.77 M2.78 209.11 C54.2 150.32, 109.19 89.73, 148.42 41.57 M2.78 209.11 C40 168.89, 76.93 127.58, 148.42 41.57 M2.91 221.16 C51.38 164.52, 101.33 109.53, 148.55 53.61 M2.91 221.16 C35.32 183.26, 68.49 145.08, 148.55 53.61 M2.39 233.95 C34.36 196.05, 68.31 160.56, 148.69 65.65 M2.39 233.95 C52.31 176.9, 103.53 117.69, 148.69 65.65 M2.52 245.99 C33.06 210.06, 63.14 174.92, 148.82 77.69 M2.52 245.99 C34.71 208.03, 66.72 171.46, 148.82 77.69 M2.65 258.03 C38.59 215.09, 72.75 175.09, 148.95 89.73 M2.65 258.03 C32.33 223.71, 62.48 188.91, 148.95 89.73 M2.79 270.07 C54.25 213.78, 102 154.29, 149.09 101.77 M2.79 270.07 C43.69 224.49, 84 177.53, 149.09 101.77 M2.92 282.11 C55.18 223.17, 107.92 161.32, 148.56 114.57 M2.92 282.11 C57.63 219.53, 111.79 156.73, 148.56 114.57 M2.4 294.91 C45.76 246.27, 88.68 196.07, 148.7 126.61 M2.4 294.91 C42.4 250.81, 80.73 205.23, 148.7 126.61 M2.53 306.95 C41.88 264.58, 81.09 218.32, 148.83 138.65 M2.53 306.95 C48 253.78, 93.68 201, 148.83 138.65 M2.66 318.99 C36.74 282.3, 68.04 246.54, 148.96 150.69 M2.66 318.99 C49.16 264.85, 97.46 208.41, 148.96 150.69 M2.79 331.03 C47.41 280.87, 93.04 229.05, 149.1 162.73 M2.79 331.03 C49.47 278.87, 94.25 225.71, 149.1 162.73 M2.93 343.07 C58.09 277.03, 113.44 213.67, 148.57 175.53 M2.93 343.07 C54.21 284.85, 105.04 224.59, 148.57 175.53 M2.4 355.87 C61.78 291.17, 119.5 223.06, 148.71 187.57 M2.4 355.87 C56.75 294.62, 109.15 234.34, 148.71 187.57 M2.54 367.91 C39.15 325.23, 79.18 279.75, 148.84 199.61 M2.54 367.91 C49.99 311.59, 97.21 258.46, 148.84 199.61 M2.67 379.95 C44.39 329.94, 85.43 282.34, 148.97 211.65 M2.67 379.95 C43.46 331.66, 83.85 285.76, 148.97 211.65 M2.8 391.99 C37.1 350.77, 72.7 311.17, 149.11 223.69 M2.8 391.99 C56.4 331.72, 110.87 269.31, 149.11 223.69 M2.94 404.03 C50.64 350.63, 97.72 295.95, 149.24 235.73 M2.94 404.03 C59.64 335.51, 118.87 268.83, 149.24 235.73 M2.41 416.83 C47.32 364.75, 90.99 315.22, 148.72 248.53 M2.41 416.83 C46.5 366.1, 91.38 316.33, 148.72 248.53 M3.2 428.11 C45.43 382.16, 83.75 332.76, 148.85 260.57 M3.2 428.11 C43.95 383.84, 84.81 336.96, 148.85 260.57 M5.31 437.89 C57.17 377.52, 109.25 317.88, 148.98 272.61 M5.31 437.89 C45.08 392.02, 84.66 346.3, 148.98 272.61 M10.69 443.89 C52.46 397.31, 91.72 353.14, 149.12 284.65 M10.69 443.89 C63.67 387.15, 114.13 328.42, 149.12 284.65 M17.38 448.39 C57.22 400.67, 96.81 355.35, 149.25 296.69 M17.38 448.39 C64.36 395.02, 110.67 341.23, 149.25 296.69 M26.04 450.62 C68.97 400.55, 113.04 351.72, 149.38 308.73 M26.04 450.62 C73.41 398.2, 118.99 344.78, 149.38 308.73 M36.67 450.58 C75.09 404.82, 116.34 360.19, 148.86 321.53 M36.67 450.58 C72.11 407.66, 108.41 365.93, 148.86 321.53 M47.3 450.55 C69.81 422.14, 94.86 398.74, 148.99 333.57 M47.3 450.55 C76.36 418.81, 103.79 387.52, 148.99 333.57 M57.93 450.51 C86.81 414.88, 118.97 378.45, 149.12 345.61 M57.93 450.51 C82.05 421.04, 107.05 393.4, 149.12 345.61 M68.56 450.48 C95.75 419.11, 123.04 388.39, 149.26 357.65 M68.56 450.48 C93.6 422.36, 119.24 391.74, 149.26 357.65 M79.19 450.45 C106.89 421.26, 133.29 389.64, 149.39 369.69 M79.19 450.45 C95.95 431.92, 111.64 413.63, 149.39 369.69 M89.82 450.41 C103.17 435.72, 116.57 421.62, 148.87 382.49 M89.82 450.41 C102.28 434.7, 115.39 421.42, 148.87 382.49 M100.45 450.38 C113.05 437.75, 121.49 426.87, 149 394.53 M100.45 450.38 C115.13 433.67, 129.68 416.6, 149 394.53 M111.08 450.34 C124.26 436.23, 137.04 418.05, 149.13 406.57 M111.08 450.34 C123.39 435.51, 136.26 421.17, 149.13 406.57 M121.06 451.06 C127.71 443.87, 137.42 431.67, 147.3 420.87 M121.06 451.06 C131.22 439.69, 140.85 428.64, 147.3 420.87" stroke="#fab005" stroke-width="1" fill="none" transform="translate(786.5426905628738 369.84615006657714) rotate(0 71.9952004283432 224.9258754921807)"/><path d="M32 0 M32 0 C54.24 -1.35, 76.4 -1.78, 111.99 0 M111.99 0 C133.9 -1.47, 144.85 9.45, 143.99 32 M143.99 32 C141.93 143.99, 142.11 258.29, 143.99 417.85 M143.99 417.85 C145.65 438.84, 134.51 451.33, 111.99 449.85 M111.99 449.85 C87.88 449.75, 64.25 449.85, 32 449.85 M32 449.85 C11.34 448.18, 1.74 437.62, 0 417.85 M0 417.85 C0.52 286.83, 1.21 153.5, 0 32 M0 32 C1.01 11.4, 10.64 -1.12, 32 0" stroke="#e67700" stroke-width="2.5" fill="none" stroke-dasharray="1.5 8" transform="translate(786.5426905628738 369.84615006657714) rotate(0 71.9952004283432 224.9258754921807)"/></g><g stroke-linecap="round"><path d="M7.86 8.16 C7.86 8.16, 7.86 8.16, 7.86 8.16 M7.86 8.16 C7.86 8.16, 7.86 8.16, 7.86 8.16 M2.75 26.24 C9.75 19.02, 11.74 14.57, 21.12 5.11 M2.75 26.24 C7.63 20.93, 11.26 16.87, 21.12 5.11 M2.88 38.28 C13.9 24.96, 27.78 10.33, 34.37 2.05 M2.88 38.28 C9.11 30.64, 16.75 23.42, 34.37 2.05 M2.36 51.07 C13.63 35.31, 30.78 17.9, 45 2.02 M2.36 51.07 C11.56 40.95, 19.98 29.91, 45 2.02 M2.49 63.11 C23.8 37.6, 43.05 16.05, 55.63 1.98 M2.49 63.11 C22.94 39.91, 41.53 17.46, 55.63 1.98 M2.62 75.16 C24.8 46.95, 50.5 19.26, 66.26 1.95 M2.62 75.16 C18 58.1, 32.19 42.09, 66.26 1.95 M2.76 87.2 C26.05 58.03, 51.24 27.46, 76.23 2.67 M2.76 87.2 C16.39 70.22, 31.49 53.33, 76.23 2.67 M2.89 99.24 C22.17 73.34, 46.54 50.23, 86.86 2.63 M2.89 99.24 C31.27 65.13, 62.11 29.71, 86.86 2.63 M2.37 112.03 C24.92 88.3, 47.91 58.29, 97.49 2.6 M2.37 112.03 C37.79 71.4, 72.7 31.03, 97.49 2.6 M2.5 124.07 C34.85 89.36, 65.33 51.61, 108.12 2.57 M2.5 124.07 C28.65 93.73, 54.21 64.31, 108.12 2.57 M2.63 136.11 C47.36 83.16, 94.05 31.41, 120.07 1.02 M2.63 136.11 C29.37 104.1, 57.13 72.28, 120.07 1.02 M2.77 148.16 C29.53 117.2, 57.49 88.18, 128.07 4.01 M2.77 148.16 C33.94 113.03, 65.04 78.45, 128.07 4.01 M2.9 160.2 C33.79 124.35, 63.1 91.45, 135.42 7.75 M2.9 160.2 C42.26 115.58, 81.94 69.73, 135.42 7.75 M2.38 172.99 C37.61 131.21, 71.11 92.16, 140.8 13.75 M2.38 172.99 C49.32 118.93, 95.75 67.24, 140.8 13.75 M2.51 185.03 C45.61 137.23, 85.34 92.28, 143.56 22.77 M2.51 185.03 C45.57 133.59, 91.65 81.97, 143.56 22.77 M2.64 197.07 C48.93 146.74, 92.27 95.57, 148.94 28.77 M2.64 197.07 C61.16 130.7, 117.99 66.08, 148.94 28.77 M2.78 209.11 C43.54 166.09, 82.54 118.34, 148.42 41.57 M2.78 209.11 C36.54 172.79, 69.07 135.15, 148.42 41.57 M2.91 221.16 C52.87 164.41, 104.42 104.09, 148.55 53.61 M2.91 221.16 C48.15 169.45, 93.16 116.84, 148.55 53.61 M2.39 233.95 C48.91 181.4, 97.7 127.83, 148.69 65.65 M2.39 233.95 C60.29 169.37, 115.87 102.96, 148.69 65.65 M2.52 245.99 C57.15 182.14, 112.52 116.84, 148.82 77.69 M2.52 245.99 C42.95 198.28, 84.9 150.79, 148.82 77.69 M2.65 258.03 C54.02 195.45, 108.44 134.37, 148.95 89.73 M2.65 258.03 C54.02 199.6, 104.73 141.91, 148.95 89.73 M2.79 270.07 C52.12 213.14, 98.14 160.03, 149.09 101.77 M2.79 270.07 C49.7 217.17, 95.1 165.53, 149.09 101.77 M2.92 282.11 C61.84 216.67, 117.77 152.29, 148.56 114.57 M2.92 282.11 C46.79 231.55, 90.4 182.04, 148.56 114.57 M2.4 294.91 C50.63 240.66, 97.16 186.28, 148.7 126.61 M2.4 294.91 C48.3 242.12, 92.66 190.55, 148.7 126.61 M2.53 306.95 C58.63 246.05, 110.67 183.62, 148.83 138.65 M2.53 306.95 C60.49 239.57, 118.79 172.48, 148.83 138.65 M2.66 318.99 C35.86 280.63, 69.9 243.4, 148.96 150.69 M2.66 318.99 C59.93 254.56, 114.9 189.06, 148.96 150.69 M2.79 331.03 C49.9 279.28, 95.33 226.73, 149.1 162.73 M2.79 331.03 C39.06 288.68, 74.36 248.67, 149.1 162.73 M2.93 343.07 C45.76 290.95, 91.38 241.68, 148.57 175.53 M2.93 343.07 C59.41 278.47, 113.69 215.85, 148.57 175.53 M2.4 355.87 C36.54 318.73, 67.21 281.51, 148.71 187.57 M2.4 355.87 C33.83 318.56, 66.21 281.49, 148.71 187.57 M2.54 367.91 C56.67 308.93, 107.82 248.64, 148.84 199.61 M2.54 367.91 C46.9 314.21, 94.61 260.33, 148.84 199.61 M2.67 379.95 C54.24 317.72, 108.39 258.45, 148.97 211.65 M2.67 379.95 C50.79 322.28, 101.37 264.66, 148.97 211.65 M2.8 391.99 C58.3 327.84, 115.38 263.71, 149.11 223.69 M2.8 391.99 C55.36 334.28, 105.58 275.87, 149.11 223.69 M2.94 404.03 C55.74 344.55, 107.28 286.97, 149.24 235.73 M2.94 404.03 C58.6 339.33, 116.3 273.47, 149.24 235.73 M2.41 416.83 C47.39 363.62, 94.71 312.59, 148.72 248.53 M2.41 416.83 C32.47 383.06, 63.63 346.92, 148.72 248.53 M3.2 428.11 C46.16 377.6, 85.74 328.97, 148.85 260.57 M3.2 428.11 C36.14 393.37, 66.35 357.41, 148.85 260.57 M5.31 437.89 C43.89 392.83, 83.17 346.93, 148.98 272.61 M5.31 437.89 C59.27 375.45, 113.31 313.81, 148.98 272.61 M10.69 443.89 C43.44 405.08, 78.64 367.38, 149.12 284.65 M10.69 443.89 C41.89 409.63, 70.94 376.15, 149.12 284.65 M17.38 448.39 C60.56 396.28, 106.29 346.73, 149.25 296.69 M17.38 448.39 C56.8 403.04, 95.74 358.78, 149.25 296.69 M26.04 450.62 C67.32 403.74, 109.73 357.75, 149.38 308.73 M26.04 450.62 C54.84 417.2, 82.72 383.61, 149.38 308.73 M36.67 450.58 C79.63 402.56, 123.58 354.63, 148.86 321.53 M36.67 450.58 C75.67 404.55, 115.86 358.94, 148.86 321.53 M47.3 450.55 C72.36 421.04, 102.39 389.87, 148.99 333.57 M47.3 450.55 C78.88 414.41, 110.76 379.4, 148.99 333.57 M57.93 450.51 C92.9 410.81, 127.01 370.87, 149.12 345.61 M57.93 450.51 C86.83 416.26, 117.61 381.94, 149.12 345.61 M68.56 450.48 C99.22 415.77, 130.59 378.04, 149.26 357.65 M68.56 450.48 C92.54 424.3, 114.01 398.47, 149.26 357.65 M79.19 450.45 C106.32 421.68, 130.95 390.3, 149.39 369.69 M79.19 450.45 C100.59 425.56, 122.3 399.06, 149.39 369.69 M89.82 450.41 C105.2 433.3, 121.15 414.99, 148.87 382.49 M89.82 450.41 C101.13 436.16, 114.93 420.58, 148.87 382.49 M100.45 450.38 C112.02 435.69, 125.31 422.72, 149 394.53 M100.45 450.38 C119.58 428.74, 138.32 406.82, 149 394.53 M111.08 450.34 C121.13 439.34, 127.14 430.1, 149.13 406.57 M111.08 450.34 C124.97 434.29, 139.4 416.88, 149.13 406.57 M121.06 451.06 C132.77 440.77, 139.44 429.89, 147.3 420.87 M121.06 451.06 C130.84 440.03, 140.93 427.68, 147.3 420.87" stroke="#fd7e14" stroke-width="1" fill="none" transform="translate(974.5851937270236 370.89479715351354) rotate(0 71.9952004283432 224.9258754921807)"/><path d="M32 0 M32 0 C56.83 0.17, 82.15 0.51, 111.99 0 M111.99 0 C131.85 0.86, 142.77 10.52, 143.99 32 M143.99 32 C143.82 118.47, 145.14 206.23, 143.99 417.85 M143.99 417.85 C143.65 440.38, 134.81 449.61, 111.99 449.85 M111.99 449.85 C83.64 447.75, 56.25 450.09, 32 449.85 M32 449.85 C9 451.59, -1.57 440.04, 0 417.85 M0 417.85 C0.97 319.8, -0.2 221.99, 0 32 M0 32 C0.73 10.64, 9.55 1.94, 32 0" stroke="#d9480f" stroke-width="2.5" fill="none" stroke-dasharray="1.5 8" transform="translate(974.5851937270236 370.89479715351354) rotate(0 71.9952004283432 224.9258754921807)"/></g><g stroke-linecap="round"><g><path d="M0.51 0.58 C-34.68 21.39, -175.56 103.3, -210.54 123.69" stroke="#343a40" stroke-width="2.5" fill="none" stroke-dasharray="1.5 8" transform="translate(507.40524119511974 226.7563720594253) rotate(0 -105.01560367364527 62.132039217701276)"/></g><g><path d="M-190.39 100.47 C-197.09 110.57, -205.09 117.07, -212.51 125.63" stroke="#343a40" stroke-width="2.5" fill="none" stroke-dasharray="1.5 6" transform="translate(507.40524119511974 226.7563720594253) rotate(0 -105.01560367364527 62.132039217701276)"/></g><g><path d="M-180.06 118.2 C-190.2 122.15, -201.82 122.44, -212.51 125.63" stroke="#343a40" stroke-width="2.5" fill="none" stroke-dasharray="1.5 6" transform="translate(507.40524119511974 226.7563720594253) rotate(0 -105.01560367364527 62.132039217701276)"/></g></g><g stroke-linecap="round"><g><path d="M0.72 -0.31 C-12.51 19.88, -65.23 100.64, -78.53 120.87" stroke="#343a40" stroke-width="2.5" fill="none" stroke-dasharray="1.5 8" transform="translate(545.1400695824977 229.47839215743534) rotate(0 -38.90640915897711 60.28443372547281)"/></g><g><path d="M-72.18 91.39 C-74.5 101.26, -76.6 111.84, -78.93 122.32" stroke="#343a40" stroke-width="2.5" fill="none" stroke-dasharray="1.5 6" transform="translate(545.1400695824977 229.47839215743534) rotate(0 -38.90640915897711 60.28443372547281)"/></g><g><path d="M-55.01 102.63 C-63.64 108.45, -72.07 114.89, -78.93 122.32" stroke="#343a40" stroke-width="2.5" fill="none" stroke-dasharray="1.5 6" transform="translate(545.1400695824977 229.47839215743534) rotate(0 -38.90640915897711 60.28443372547281)"/></g></g><g stroke-linecap="round"><g><path d="M0.46 1.07 C34.29 20.42, 170.14 96.32, 203.83 115.28" stroke="#343a40" stroke-width="2.5" fill="none" stroke-dasharray="1.5 8" transform="translate(629.2520351968451 228.1173821084294) rotate(0 102.14216434369791 58.17803576025699)"/></g><g><path d="M176.01 111.32 C186.98 110.94, 197.24 115.42, 202.14 114.34" stroke="#343a40" stroke-width="2.5" fill="none" stroke-dasharray="1.5 6" transform="translate(629.2520351968451 228.1173821084294) rotate(0 102.14216434369791 58.17803576025699)"/></g><g><path d="M186.04 93.42 C193.2 99.68, 199.75 110.78, 202.14 114.34" stroke="#343a40" stroke-width="2.5" fill="none" stroke-dasharray="1.5 6" transform="translate(629.2520351968451 228.1173821084294) rotate(0 102.14216434369791 58.17803576025699)"/></g></g><g stroke-linecap="round"><g><path d="M-0.29 -0.93 C52.49 18.27, 264.14 96.02, 317.08 115.63" stroke="#343a40" stroke-width="2.5" fill="none" stroke-dasharray="1.5 8" transform="translate(696.0449655783304 228.53237861517573) rotate(0 158.39430367603836 57.348392658427656)"/></g><g><path d="M285.53 115.66 C296.9 116.24, 308.62 116.38, 318.39 115.26" stroke="#343a40" stroke-width="2.5" fill="none" stroke-dasharray="1.5 6" transform="translate(696.0449655783304 228.53237861517573) rotate(0 158.39430367603836 57.348392658427656)"/></g><g><path d="M292.62 96.4 C301.72 103.31, 311.11 109.79, 318.39 115.26" stroke="#343a40" stroke-width="2.5" fill="none" stroke-dasharray="1.5 6" transform="translate(696.0449655783304 228.53237861517573) rotate(0 158.39430367603836 57.348392658427656)"/></g></g><g><text x="0" y="18" font-family="Virgil, Segoe UI Emoji" font-size="20" fill="#d9480f" text-anchor="start" direction="ltr" white-space="pre" transform="translate(27.533602410030653 849.0731546924198) rotate(0 51 12.5)">1000 docs</text></g><g><text x="0" y="18" font-family="Virgil, Segoe UI Emoji" font-size="20" fill="#d9480f" text-anchor="start" direction="ltr" white-space="pre" transform="translate(206.38811921082197 846.4165346899999) rotate(0 55.5 12.5)">2000 docs</text></g><g><text x="0" y="18" font-family="Virgil, Segoe UI Emoji" font-size="20" fill="#d9480f" text-anchor="start" direction="ltr" white-space="pre" transform="translate(412.67510834145287 843.7123639041092) rotate(0 51 12.5)">1000 docs</text></g><g><text x="0" y="18" font-family="Virgil, Segoe UI Emoji" font-size="20" fill="#d9480f" text-anchor="start" direction="ltr" white-space="pre" transform="translate(607.5167235892131 849.2441869091281) rotate(0 51 12.5)">1000 docs</text></g><g><text x="0" y="18" font-family="Virgil, Segoe UI Emoji" font-size="20" fill="#d9480f" text-anchor="start" direction="ltr" white-space="pre" transform="translate(786.3712403900045 846.5875669067091) rotate(0 55.5 12.5)">2000 docs</text></g><g><text x="0" y="18" font-family="Virgil, Segoe UI Emoji" font-size="20" fill="#d9480f" text-anchor="start" direction="ltr" white-space="pre" transform="translate(992.6582295206335 843.8833961208193) rotate(0 51 12.5)">1000 docs</text></g></svg>